<svg preserveAspectRatio="none" width="100%" height="100%" overflow="visible" style="display: block;" viewBox="0 0 119.485 103.369" fill="none" xmlns="http://www.w3.org/2000/svg">
<g id="Black">
<path id="Vector" d="M39.1921 103.189C27.5172 103.02 21.3413 102.766 20.7914 102.47C20.3261 102.216 18.8033 101.878 17.4074 101.708C16.0537 101.539 14.6155 101.159 14.2348 100.862C13.8964 100.524 13.135 100.143 12.5428 99.9741C11.2738 99.5934 9.07417 98.0706 8.56656 97.2669C8.35506 96.9285 7.72055 96.2094 7.17065 95.7017C6.66304 95.1941 6.19774 94.5596 6.19774 94.3058C6.19774 94.052 5.90163 93.7136 5.56323 93.5867C5.22483 93.4598 4.84412 92.6561 4.67492 91.8101C4.50572 90.9218 4.16731 89.9489 3.82891 89.6105C3.53281 89.2721 3.1098 87.7916 2.856 86.3534C2.6445 84.9151 2.26379 83.3923 2.05229 82.9693C1.84079 82.5463 1.41778 78.6124 1.12168 74.1708C0.867878 69.7716 0.571775 66.0491 0.444874 65.8799C-0.0204313 65.0762 -0.189633 49.3405 0.275672 46.041C0.571775 44.0529 1.03708 40.8381 1.29088 38.8499C1.75619 35.6351 2.433 33.7739 4.25191 30.4745C5.01332 29.1631 8.69346 25.7368 9.41257 25.7368C9.70867 25.7368 10.2163 25.4407 10.597 25.1023C11.7814 23.8756 15.4192 23.6641 35.8504 23.5795C47.1023 23.4949 57.2967 23.4526 58.4811 23.4526C59.6655 23.4103 60.9345 23.1565 61.3575 22.8181C62.2035 22.099 66.6874 12.9198 66.6874 11.9046C66.6874 11.6508 66.9412 11.2277 67.2796 10.9739C67.618 10.6778 68.041 9.87413 68.1679 9.19733C68.3371 8.52052 68.5909 7.97061 68.8024 7.97061C68.9716 7.97061 69.4369 7.25151 69.8176 6.4055C70.1983 5.51719 71.002 4.03667 71.5519 3.10606C72.1441 2.17545 72.6941 1.07564 72.8633 0.652636C73.0748 0.14503 73.4978 -0.0664721 74.2592 0.0181288C75.2321 0.14503 75.4013 0.398833 75.782 2.68306C76.0358 4.07897 76.3319 5.43259 76.5434 5.72869C76.7126 5.98249 77.051 7.33611 77.3048 8.68972C77.5586 10.0433 77.9393 11.3546 78.1085 11.5662C78.32 11.82 78.7007 13.2159 78.9545 14.7387C79.2083 16.2615 79.6313 17.6997 79.8428 17.9535C80.0543 18.2073 80.435 19.434 80.6465 20.703C81.1118 23.1988 81.8732 24.0448 83.6076 24.0448C84.2421 24.0448 85.6803 24.2986 86.8224 24.637C87.9645 24.9754 89.868 25.3561 91.0102 25.5253C92.1946 25.6945 93.7174 26.0752 94.3942 26.3713C95.1133 26.6674 96.1285 27.0904 96.7207 27.2173C97.8628 27.5557 102.389 29.6707 103.658 30.5168C104.8 31.2782 107.254 33.3932 108.734 34.8737C110.299 36.4388 113.218 41.0496 113.218 41.9379C113.218 42.2763 113.514 42.7839 113.852 43.08C114.191 43.3761 114.487 43.926 114.487 44.3067C114.487 44.6874 114.952 45.9564 115.544 47.0985C116.094 48.2829 116.602 49.6366 116.602 50.1442C116.602 50.6518 116.898 51.9208 117.236 52.8937C117.575 53.9089 118.04 56.7007 118.294 59.1542C119.732 73.8324 119.732 73.4094 119.013 76.4127C118.632 77.9779 118.209 81.7426 118.04 84.7459C117.871 88.1723 117.575 90.4988 117.236 90.8795C116.94 91.2179 116.56 92.1062 116.433 92.783C115.925 95.1941 109.834 100.186 107.38 100.186C107 100.186 106.154 100.482 105.519 100.778C104.842 101.116 102.939 101.539 101.289 101.708C99.5971 101.878 97.4398 102.301 96.5092 102.639C95.1133 103.147 91.5178 103.274 75.782 103.358C65.3338 103.4 48.8366 103.316 39.1921 103.189ZM98.6242 100.101C99.5548 99.7203 101.416 99.2973 102.727 99.1281C104.039 99.0012 105.35 98.5782 105.646 98.2398C105.9 97.9014 106.45 97.6476 106.831 97.6476C107.211 97.6476 108.269 97.2669 109.199 96.7593C113.514 94.475 115.037 91.5986 115.714 84.3229C115.967 81.5311 116.39 77.8933 116.687 76.2012C117.067 73.8747 117.067 71.7174 116.687 67.1066C116.137 60.2963 115.206 53.7397 114.572 52.5553C114.36 52.09 114.022 50.9056 113.852 49.8481C113.683 48.7906 113.26 47.5638 112.964 47.0985C112.626 46.6332 112.372 46.041 112.372 45.7449C112.372 43.926 108.226 37.9193 104.758 34.7891C102.474 32.7164 97.7782 29.9668 96.5092 29.9668C96.1708 29.9668 95.1556 29.5861 94.3096 29.1208C93.4213 28.6555 92.0254 28.2748 91.2217 28.2748C90.3756 28.2748 89.3181 27.9787 88.8105 27.6403C88.3029 27.2596 86.3571 26.9212 83.9037 26.752L79.8428 26.4559L79.166 24.5101C78.7853 23.4526 78.2777 21.7183 78.0662 20.6607C77.8547 19.6032 77.3894 18.2919 77.0933 17.6997C76.7549 17.1075 76.3742 15.5424 76.2473 14.2311C76.0781 12.8775 75.782 11.6931 75.5705 11.5662C75.4013 11.4393 75.0206 10.424 74.7245 9.23963C74.4284 8.05521 74.0054 6.9977 73.7516 6.8285C73.2017 6.4901 71.0443 9.11273 70.7059 10.6355C70.5367 11.27 70.2406 11.7777 70.0714 11.7777C69.8599 11.7777 69.1831 12.8775 68.5486 14.1888C64.6993 22.522 63.5995 24.5524 62.5419 25.2292C61.5267 25.906 59.5809 25.9483 39.6151 25.9483C17.1959 25.9906 11.5276 26.329 10.9777 27.7249C10.8508 28.021 10.5124 28.2748 10.174 28.2748C9.28567 28.2748 5.90163 31.955 5.56323 33.2663C5.39403 33.9008 5.05562 34.7045 4.75952 35.0429C4.20961 35.6774 3.53281 38.7653 2.8137 43.926C2.26379 47.8599 2.30609 69.5601 2.856 71.6328C3.1098 72.5634 3.49051 75.5667 3.70201 78.3163C3.91351 81.0658 4.33652 83.8153 4.67492 84.4498C4.97102 85.0843 5.35173 86.4802 5.52093 87.5801C5.69013 88.6376 6.11313 89.7797 6.40924 90.0335C6.74764 90.3296 7.04374 90.8795 7.04374 91.2602C7.04374 92.5292 11.5699 97.6476 12.6697 97.6476C13.0081 97.6476 13.5157 97.9437 13.8118 98.2821C14.1079 98.6205 14.9962 99.0012 15.8845 99.1704C16.7305 99.2973 17.9996 99.6357 18.6764 99.8895C20.4107 100.524 38.9383 100.862 70.7059 100.82C93.9289 100.778 97.1437 100.693 98.6242 100.101Z" fill="var(--fill-0, #C7C7C7)"/>
<path id="Vector_2" d="M43.1686 88.3415C41.7727 87.7916 38.7694 84.6614 38.7694 83.8154C38.7694 83.3924 38.4733 82.631 38.1348 82.1234C37.6695 81.4889 37.3311 79.4584 37.0773 75.9052C36.9081 72.9865 36.5697 70.3638 36.3582 70.0677C36.189 69.7716 35.8506 68.7564 35.5968 67.8258C35.2161 66.303 35.0046 66.1338 33.5664 65.88C31.1553 65.4993 29.0403 64.188 29.0403 63.0882C29.0403 62.5806 29.421 61.9461 29.9286 61.6922C30.9438 61.1423 33.8625 61.523 35.1738 62.3691C36.1467 63.0036 36.5697 62.7921 37.6695 61.1C38.4733 59.831 38.4733 58.8158 37.5003 53.0207C37.2042 51.4132 37.0773 48.8752 37.1619 47.437C37.2888 45.1951 37.5426 44.5606 38.5579 43.5031C39.7846 42.234 39.8269 42.1917 43.8454 42.3186C47.8217 42.4455 47.864 42.4455 47.864 43.5031C47.864 44.5606 47.8217 44.5606 44.1415 44.5606C41.3074 44.5606 40.3345 44.7298 39.9961 45.1951C39.7 45.6181 39.6577 47.7754 39.8692 51.3286C40.3345 59.9579 40.2076 61.6499 38.9809 63.4266C37.9233 64.9071 37.9233 65.034 38.3464 68.8833C38.6002 71.0406 38.8963 72.9865 39.0232 73.198C39.1924 73.4095 39.4462 75.5245 39.6154 77.851C39.9538 81.9542 39.9961 82.1234 41.6458 84.0269L43.2955 86.015L46.5526 86.1419L49.8098 86.2688L49.6829 87.4109C49.556 88.5107 49.4714 88.553 46.8064 88.6376C45.2836 88.6799 43.6339 88.553 43.1686 88.3415Z" fill="var(--fill-0, #C7C7C7)"/>
<path id="Vector_3" d="M62.5845 86.7762C62.2884 86.6916 62.0346 86.0994 62.0346 85.5072V84.4074L65.5878 84.7035C67.5337 84.8727 70.114 84.8727 71.2984 84.7035C73.2019 84.4497 73.6672 84.1959 74.8516 82.7154C75.9938 81.2348 76.2053 80.6003 76.2053 78.7814C76.2053 77.3009 75.9515 76.328 75.4862 75.7781C75.0631 75.3128 74.7247 74.5937 74.6824 74.1284C74.6824 73.7054 74.1325 72.394 73.4557 71.2096C70.96 66.895 70.0717 64.7377 70.0717 63.2148C70.0717 62.3688 69.8179 61.0575 69.5218 60.2961C69.1834 59.4924 68.9719 57.6312 69.0565 55.77C69.2257 48.1982 66.73 45.6179 59.2851 45.6179C57.2547 45.6179 56.9586 45.5333 56.9586 44.7719C56.9586 43.6297 58.3968 43.3336 62.4999 43.6297C64.7418 43.7566 66.0532 44.0527 66.4762 44.518C66.8569 44.8988 67.3222 45.1949 67.5337 45.1949C67.7452 45.1949 68.4643 45.7871 69.1834 46.5485C70.7062 48.1559 71.5099 51.836 71.1715 55.3047C71.0023 56.8698 71.0869 58.0119 71.4253 58.731C71.8906 59.6193 73.7095 60.846 75.317 61.3959C76.163 61.692 75.1477 63.6379 73.8787 64.1032C72.652 64.5685 72.1867 65.626 72.9904 66.0913C73.2019 66.2182 74.0479 67.741 74.8939 69.4753C75.6977 71.2096 76.586 72.7325 76.8398 72.9017C77.0513 73.0286 77.2628 73.4939 77.2628 73.8746C77.2628 74.2553 77.5589 75.1436 77.8973 75.8204C79.547 78.9929 78.1511 83.2653 74.6401 85.8033C72.9481 87.03 72.8212 87.0723 67.999 87.03C65.2917 87.03 62.8383 86.9031 62.5845 86.7762Z" fill="var(--fill-0, #C7C7C7)"/>
</g>
</svg>
