<svg preserveAspectRatio="none" width="100%" height="100%" overflow="visible" style="display: block;" viewBox="0 0 230.584 157" fill="none" xmlns="http://www.w3.org/2000/svg">
<g id="Black">
<path id="Vector" d="M221.803 156.644C221.922 156.435 221.892 156.406 221.653 156.525C221.086 156.883 219.383 155.539 215.59 151.686C213.081 149.177 212.155 148.072 212.394 147.833C212.633 147.594 212.603 147.445 212.334 147.296C212.125 147.146 212.036 147.176 212.185 147.385C212.573 148.012 211.826 148.042 211.14 147.415C210.751 147.087 210.572 146.877 210.781 146.967C210.96 147.087 211.199 147.057 211.289 146.907C211.349 146.788 211.14 146.639 210.811 146.639C210.094 146.579 205.136 141.8 205.375 141.412C205.465 141.262 205.375 141.203 205.136 141.232C204.927 141.292 204.778 141.143 204.837 140.934C204.867 140.695 204.778 140.605 204.658 140.695C204.33 140.904 203.344 139.858 203.553 139.59C203.643 139.47 203.613 139.44 203.493 139.53C203.195 139.769 200.417 136.961 200.596 136.633C200.686 136.483 200.596 136.424 200.357 136.453C200.148 136.513 199.999 136.364 200.058 136.155C200.088 135.916 200.028 135.826 199.879 135.916C199.521 136.125 195.877 132.391 196.146 132.063C196.265 131.943 196.205 131.913 195.996 132.033C195.548 132.302 185.124 122.117 185.393 121.669C185.483 121.489 185.453 121.46 185.273 121.549C185.124 121.639 184.318 121.071 183.541 120.265C182.735 119.428 181.988 118.771 181.869 118.771C181.779 118.771 181.54 120.145 181.331 121.848C179.808 134.631 179.18 136.991 176.94 138.484C175.148 139.679 173.027 139.679 161.976 138.425C148.715 136.901 127.299 134.422 121.266 133.706C118.548 133.377 104.987 131.764 91.0985 130.121C55.0773 125.85 46.6544 124.835 39.5756 123.998C36.1407 123.58 31.6306 123.043 29.5697 122.804C10.8123 120.563 5.88407 119.817 6.63078 119.309C6.89959 119.13 6.80999 119.1 6.39183 119.219C5.67499 119.399 4.12184 118.831 4.36078 118.443C4.45039 118.293 4.30105 118.264 4.0621 118.353C3.4946 118.562 1.10513 116.412 1.31421 115.874C1.40381 115.635 1.37395 115.546 1.19473 115.635C0.866183 115.844 0 113.037 0 111.663C0 109.512 0.746709 103.21 2.86736 87.0213C4.09197 77.8517 5.07762 70.1755 5.07762 69.9067C5.07762 69.6678 5.1971 69.5184 5.34644 69.608C5.46591 69.6976 5.52565 69.4587 5.46591 69.1003C5.37631 68.712 5.73473 65.3966 6.24249 61.6929C6.75025 58.0191 7.6463 51.448 8.2138 47.0873C8.81117 42.7265 9.52801 37.2904 9.85656 34.9906C10.1851 32.6907 11.111 25.7015 11.9473 19.459C13.4706 7.9597 14.1875 3.95733 14.6654 4.25602C14.8147 4.34562 14.8446 4.19628 14.755 3.95733C14.4862 3.24049 15.6809 1.59773 16.9951 0.851024C17.6522 0.462735 18.8469 0.104314 19.6235 0.0147091C20.4001 -0.074896 25.0297 0.253656 29.8684 0.761418C34.707 1.26918 40.621 1.89642 43.0105 2.13536C48.327 2.70286 62.6041 4.37549 93.936 8.10904C102.986 9.1843 111.797 10.2297 113.589 10.4388C115.352 10.618 116.785 10.8868 116.785 11.0361C116.785 11.1556 116.905 11.1855 117.084 11.0959C117.383 10.9167 120.459 11.2452 132.765 12.7386C136.708 13.2165 147.341 14.5009 156.361 15.5761C181.032 18.5331 186.438 19.2499 186.229 19.6084C186.17 19.7278 186.408 19.7577 186.797 19.698C188.051 19.459 191.695 21.3706 191.277 22.0576C191.187 22.177 191.277 22.2666 191.486 22.2368C192.054 22.0874 193.159 23.9393 193.517 25.6119C194.085 28.2403 194.085 28.1806 191.337 48.8794C189.246 64.5304 186.797 82.4813 185.333 93.0846L184.019 102.792L185.722 104.375C186.647 105.211 187.394 106.077 187.334 106.257C187.305 106.436 187.364 106.495 187.514 106.406C187.872 106.197 189.425 107.84 189.156 108.168C189.007 108.288 189.067 108.317 189.246 108.228C189.634 107.989 191.845 110.199 191.546 110.528C191.397 110.647 191.456 110.737 191.606 110.707C192.233 110.558 192.681 110.707 192.502 111.006C192.412 111.185 192.502 111.304 192.711 111.304C193.278 111.304 196.892 115.008 196.623 115.336C196.504 115.456 196.534 115.486 196.713 115.396C196.892 115.307 197.878 116.113 198.953 117.188C199.999 118.264 200.715 119.07 200.506 118.951C200.327 118.861 200.088 118.891 199.969 119.04C199.879 119.219 200.148 119.279 200.596 119.19C201.223 119.07 201.343 119.16 201.223 119.488C201.104 119.757 201.193 120.026 201.373 120.145C201.582 120.265 201.611 120.235 201.492 120.026C201.373 119.817 201.402 119.667 201.522 119.667C202 119.667 207.615 125.522 207.376 125.79C207.257 125.91 207.286 125.94 207.466 125.85C207.884 125.611 213.32 130.659 213.081 131.047C212.991 131.197 213.051 131.286 213.2 131.256C213.529 131.167 220.429 137.559 220.339 137.857C220.309 137.947 220.429 138.066 220.578 138.126C221.175 138.305 222.191 139.47 222.012 139.769C221.892 139.948 221.982 139.978 222.191 139.858C222.639 139.56 228.553 145.324 228.374 145.862C228.224 146.25 228.911 146.937 229.18 146.668C229.449 146.4 230.584 148.401 230.584 149.177C230.584 150.253 229.837 151.656 228.523 153.12C227.507 154.255 227.268 154.404 226.97 154.016C226.701 153.628 226.671 153.628 226.82 154.076C227 154.643 225.297 156.167 223.893 156.704C222.758 157.122 221.534 157.092 221.803 156.644ZM223.654 154.673C223.595 154.524 224.431 153.628 225.476 152.642C226.522 151.686 227.567 150.432 227.806 149.894C228.314 148.67 228.105 148.251 225.685 145.952C224.789 145.085 224.102 144.219 224.222 144.04C224.311 143.861 224.311 143.801 224.162 143.921C223.893 144.189 219.025 139.679 219.174 139.291C219.204 139.142 219.144 139.112 218.995 139.201C218.636 139.41 214.096 134.781 214.365 134.482C214.485 134.363 214.395 134.303 214.156 134.363C213.917 134.422 213.738 134.273 213.798 134.064C213.828 133.825 213.738 133.735 213.529 133.855C213.35 134.004 212.155 133.048 210.691 131.585C208.272 129.166 208.212 129.076 208.72 128.479C209.228 127.881 209.228 127.881 208.601 128.419C208.003 128.927 207.944 128.897 207.167 128.299C206.749 127.971 206.45 127.553 206.57 127.403C206.659 127.254 206.6 127.164 206.48 127.194C206.331 127.254 204.24 125.402 201.821 123.132C198.087 119.578 197.49 118.891 197.818 118.503C198.117 118.084 198.117 118.084 197.699 118.383C197.31 118.682 197.042 118.562 196.146 117.636C195.518 117.009 195.13 116.382 195.25 116.233C195.399 116.113 195.309 116.083 195.1 116.203C194.652 116.471 190.172 112.26 190.441 111.842C190.53 111.722 190.739 111.693 190.919 111.782C191.128 111.931 191.158 111.842 191.008 111.633C190.859 111.364 190.71 111.334 190.471 111.573C190.112 111.931 186.767 109.034 186.916 108.497C186.976 108.317 186.916 108.258 186.797 108.407C186.468 108.706 183.362 105.599 183.601 105.211C183.69 105.032 183.661 104.972 183.541 105.122C183.213 105.42 180.674 102.941 180.913 102.553C181.002 102.374 180.943 102.344 180.734 102.463C180.285 102.762 179.449 102.075 179.718 101.627C179.808 101.448 179.778 101.388 179.658 101.537C179.3 101.836 177.09 99.6556 177.329 99.2374C177.418 99.0582 177.388 98.9985 177.269 99.1478C176.94 99.4465 174.7 97.2661 174.939 96.8778C175.029 96.6986 174.969 96.6688 174.79 96.7882C174.372 97.0272 173.475 96.1311 173.714 95.713C173.864 95.5039 173.774 95.474 173.565 95.6234C173.147 95.8623 171.385 94.339 171.624 93.9209C171.713 93.7715 171.654 93.7118 171.504 93.7417C171.056 93.891 168.428 91.2925 168.637 90.934C168.756 90.7548 168.726 90.6951 168.547 90.7847C168.368 90.9042 168.069 90.7847 167.86 90.5457C167.591 90.2172 167.591 90.0977 167.83 90.0977C168.039 90.0977 168.099 89.9484 167.98 89.7692C167.86 89.5302 167.711 89.5601 167.562 89.8289C167.352 90.1276 167.233 90.1276 166.845 89.8289C166.576 89.6198 166.456 89.2913 166.576 89.1121C166.666 88.9627 166.636 88.903 166.456 88.9926C166.128 89.2017 164.844 87.8875 165.053 87.5888C165.112 87.4992 165.082 87.4693 164.963 87.5589C164.664 87.7979 163.977 87.081 164.186 86.7226C164.276 86.5732 164.216 86.5135 164.067 86.6031C163.649 86.8719 156.152 79.6737 156.421 79.2555C156.51 79.1062 156.451 79.0464 156.301 79.136C155.853 79.4048 152.866 76.6868 153.135 76.2687C153.225 76.0596 153.225 75.9998 153.075 76.1193C152.956 76.2388 151.761 75.3427 150.477 74.0883L148.087 71.8183L147.371 72.8935C146.952 73.4909 146.504 73.9091 146.325 73.8195C146.176 73.7 146.086 73.7896 146.116 74.0285C146.176 74.2376 146.026 74.387 145.817 74.3272C145.578 74.2973 145.489 74.387 145.608 74.5363C145.698 74.7155 145.101 75.3427 144.264 75.97L142.771 77.0751L143.368 77.7023C143.697 78.0608 143.876 78.4491 143.756 78.5984C143.607 78.7179 143.667 78.7477 143.846 78.6581C144.204 78.4491 147.042 81.1969 146.803 81.5255C146.713 81.645 146.743 81.6748 146.863 81.5852C147.161 81.3463 148.147 82.3618 147.938 82.7202C147.848 82.8696 147.878 82.9293 148.058 82.8397C148.237 82.7202 148.595 82.8397 148.924 83.0488C149.402 83.4072 149.431 83.5267 149.043 84.0046C148.774 84.3331 148.744 84.4526 148.983 84.3033C149.163 84.1838 149.342 84.2435 149.342 84.3929C149.342 84.5721 149.491 84.7214 149.67 84.7214C149.909 84.7214 149.909 84.5721 149.641 84.2734C148.834 83.2877 149.879 83.915 151.104 85.1396C151.911 85.9759 152.299 86.6031 152.179 86.8421C152 87.081 152.06 87.1407 152.299 86.9615C152.747 86.6927 154.479 88.2459 154.21 88.6939C154.121 88.8731 154.151 88.903 154.33 88.8134C154.629 88.6342 155.853 89.7094 155.883 90.1873C155.913 90.3068 155.973 90.3665 156.032 90.3367C156.331 90.1575 157.675 91.7106 157.496 92.0093C157.406 92.1885 157.406 92.2482 157.556 92.1288C157.884 91.8301 158.661 92.4573 158.422 92.8157C158.332 92.9651 158.422 93.0547 158.661 93.0248C158.87 92.9651 159.019 93.1443 158.959 93.3832C158.9 93.6222 158.959 93.7417 159.079 93.6222C159.378 93.2936 160.124 93.9806 159.885 94.3689C159.796 94.5481 159.856 94.578 160.065 94.4585C160.513 94.1598 161.349 94.8468 161.08 95.2948C160.991 95.474 160.991 95.5338 161.14 95.4143C161.468 95.0857 166.994 100.552 166.755 100.97C166.666 101.149 166.695 101.209 166.815 101.059C167.173 100.761 169.981 103.538 169.742 103.957C169.652 104.136 169.682 104.196 169.802 104.046C170.13 103.748 171.176 104.733 170.937 105.122C170.817 105.301 170.907 105.331 171.116 105.211C171.564 104.912 179.569 112.738 179.3 113.216C179.21 113.395 179.24 113.455 179.36 113.305C179.688 113.037 181.331 114.59 181.122 114.948C181.032 115.098 181.092 115.157 181.241 115.127C181.659 114.978 190.859 123.909 190.65 124.267C190.56 124.446 190.59 124.506 190.71 124.357C191.038 124.058 193.278 126.238 193.039 126.627C192.95 126.806 193.009 126.836 193.159 126.746C193.338 126.627 193.667 126.776 193.876 127.045C194.234 127.463 194.234 127.523 193.876 127.284C193.577 127.135 193.517 127.164 193.667 127.403C193.786 127.583 193.995 127.672 194.115 127.583C194.413 127.433 196.116 129.255 195.996 129.614C195.966 129.763 196.026 129.793 196.175 129.703C196.474 129.524 201.701 134.691 201.462 134.96C201.373 135.05 201.552 135.289 201.821 135.528C202.298 135.916 202.328 135.886 201.94 135.438C201.731 135.139 201.641 134.9 201.761 134.9C202.209 134.9 210.841 143.682 210.662 143.98C210.572 144.159 210.602 144.219 210.721 144.07C211.08 143.771 212.394 145.056 212.155 145.474C212.065 145.653 212.065 145.713 212.215 145.593C212.543 145.265 213.29 145.952 213.051 146.37C212.961 146.549 212.991 146.609 213.111 146.459C213.439 146.191 215.381 148.042 215.172 148.401C215.082 148.55 215.112 148.61 215.261 148.58C215.56 148.461 220.429 152.821 220.429 153.18C220.429 153.329 220.279 153.359 220.07 153.239C219.861 153.12 219.831 153.15 219.951 153.389C220.07 153.568 220.309 153.658 220.458 153.538C220.638 153.449 221.056 153.628 221.414 153.956C221.773 154.285 222.4 154.613 222.818 154.703C223.236 154.763 223.595 154.852 223.654 154.882C223.684 154.882 223.684 154.793 223.654 154.673ZM215.53 149.476C215.65 149.297 215.62 149.237 215.441 149.327C215.261 149.446 214.963 149.327 214.754 149.088C214.545 148.849 214.246 148.64 214.096 148.64C213.917 148.64 214.096 148.909 214.485 149.237C215.351 149.924 215.261 149.924 215.53 149.476ZM175.029 136.543C175.686 136.214 175.925 136.185 176.044 136.483C176.134 136.722 176.194 136.692 176.164 136.394C176.104 135.796 177.299 133.287 177.478 133.616C177.567 133.735 177.567 133.676 177.538 133.467C177.478 133.258 177.926 129.345 178.523 124.745L179.599 116.412L178.493 115.456C177.687 114.739 177.448 114.321 177.597 113.873C177.717 113.395 177.687 113.335 177.448 113.664C177.209 114.022 177.09 114.022 176.701 113.724C176.432 113.515 176.313 113.186 176.432 112.977C176.522 112.798 176.492 112.738 176.373 112.887C176.014 113.186 173.804 111.006 174.043 110.587C174.133 110.408 174.103 110.348 173.983 110.498C173.834 110.617 173.266 110.289 172.729 109.751C172.191 109.243 171.713 108.855 171.654 108.945C171.594 109.004 171.235 111.483 170.877 114.44C169.951 121.639 169.354 125.701 169.174 126C168.906 126.418 166.337 126.268 158.093 125.342C153.673 124.865 144.443 123.849 137.544 123.102C130.644 122.356 122.042 121.4 118.428 121.011C114.814 120.623 109.677 120.056 106.989 119.787C104.091 119.458 102.299 119.16 102.508 119.01C102.747 118.861 102.568 118.831 102.09 118.951C101.343 119.1 97.6994 118.801 88.261 117.726C86.1404 117.487 76.3137 116.412 66.4571 115.336C34.7668 111.872 36.6485 112.111 35.9316 111.513C35.5135 111.215 35.394 108.795 35.7524 109.004C35.9018 109.094 36.0213 108.377 36.0213 107.451C36.0511 106.525 36.3498 103.777 36.7082 101.298C37.0666 98.8492 38.2315 90.3068 39.3068 82.3319C40.382 74.3571 41.9053 62.9474 42.7416 56.9438C43.5481 50.9403 44.6831 42.607 45.2506 38.4254C47.9089 18.8318 47.9985 18.324 48.6854 17.7565C49.0439 17.4578 49.7607 17.2189 50.2685 17.2189C51.0152 17.2189 58.3628 18.0851 84.6768 21.2213C86.4988 21.4602 90.5908 21.9381 93.7867 22.3264C97.2813 22.7147 99.7902 23.1627 100.089 23.4016C100.328 23.6107 100.686 23.7899 100.836 23.7899C100.985 23.7899 100.895 23.6406 100.656 23.4614C100.119 23.103 100.656 23.1328 110.812 24.3873C114.844 24.8652 126.612 26.269 136.946 27.5235C181.211 32.8401 179.748 32.631 180.614 33.1985C181.54 33.8257 181.51 34.5127 180.256 43.5927C179.33 50.3728 176.582 71.191 174.521 86.9018L173.774 92.8157L174.372 93.4728C174.73 93.8313 174.999 94.2793 174.999 94.4286C175.029 94.6078 175.178 94.7273 175.327 94.7273C175.895 94.7273 181.301 99.9841 181.092 100.343C180.943 100.582 181.032 100.582 181.331 100.343C181.659 100.074 181.988 98.3713 182.496 94.3092C182.884 91.2028 183.302 88.6939 183.392 88.7536C183.481 88.7835 183.571 88.0667 183.601 87.1407C183.661 85.6175 184.437 79.5542 187.424 57.6905C191.008 31.5258 191.217 29.8532 191.098 27.5235C191.008 24.8353 190.351 23.5809 188.708 22.7147C187.663 22.177 183.481 21.3706 177.418 20.5343C173.177 19.9369 153.732 17.6072 131.72 15.0086C128.344 14.6203 122.998 13.9931 119.862 13.6048C116.576 13.2165 114.247 12.8282 114.485 12.6789C114.665 12.5594 114.456 12.5296 113.948 12.6192C113.141 12.7685 108.9 12.3205 92.8906 10.379C90.3518 10.0505 82.7951 9.15443 76.1046 8.37785C69.4141 7.57141 64.0975 6.8247 64.3066 6.70522C64.5157 6.58575 64.2767 6.55588 63.769 6.64549C63.2911 6.73509 61.1406 6.61562 58.99 6.3468C56.8694 6.10786 52.2995 5.57023 48.8348 5.15207C23.835 2.1951 20.8481 1.98602 18.3989 3.03141C17.9509 3.24049 17.8912 3.18076 18.0704 2.8522C18.1898 2.61326 18.2496 2.49378 18.1301 2.58339C18.0405 2.67299 17.9808 2.79247 18.0106 2.88207C18.0704 3.35997 17.2042 4.40536 16.8458 4.25602C16.6068 4.16641 16.4276 4.22615 16.4276 4.37549C16.4276 4.5547 16.5769 4.67418 16.7562 4.67418C16.9055 4.67418 16.9951 4.79365 16.9055 4.91312C16.5172 5.54036 15.2329 14.6203 11.1708 44.6978C10.4539 50.1936 8.99038 61.0955 7.91512 68.8912C2.71802 107.272 2.65828 107.81 2.74789 110.558C2.86736 114.291 3.43486 115.336 5.97367 116.591C7.97485 117.577 9.70722 117.905 18.5184 118.921C20.5793 119.13 24.6115 119.608 27.4789 119.966C37.7835 121.221 52.2995 122.923 62.4249 124.118C68.0999 124.805 73.745 125.462 74.9696 125.641C76.1942 125.79 80.0472 126.268 83.4821 126.686C86.9468 127.075 92.5919 127.762 96.0268 128.18C115.71 130.54 125.268 131.704 129.927 132.242C132.795 132.571 138.44 133.228 142.472 133.735C146.504 134.213 151.164 134.781 152.866 134.96C154.539 135.139 155.764 135.408 155.554 135.528C155.375 135.647 155.734 135.707 156.391 135.617C157.018 135.557 160.035 135.826 163.081 136.214C169.772 137.051 173.804 137.17 175.029 136.543ZM196.534 130.898C196.534 130.838 196.295 130.808 196.026 130.838C195.638 130.868 195.488 130.659 195.518 130.211C195.548 129.823 195.459 129.614 195.339 129.673C195.13 129.793 195.13 130.48 195.339 131.017C195.369 131.107 195.399 131.286 195.369 131.406C195.339 131.525 195.608 131.495 195.937 131.316C196.265 131.137 196.534 130.958 196.534 130.898ZM167.562 123.879C167.562 123.759 168.039 120.115 168.607 115.814C169.174 111.543 169.652 107.72 169.652 107.332C169.652 106.914 169.115 106.137 168.308 105.331C167.591 104.614 167.084 103.897 167.173 103.748C167.263 103.568 167.203 103.538 167.054 103.628C166.666 103.867 165.979 103.12 166.307 102.792C166.427 102.642 166.337 102.642 166.098 102.792C165.829 102.941 165.531 102.852 165.262 102.463C164.903 101.985 164.963 101.836 165.68 101.209L166.516 100.492L165.531 101.149C164.724 101.687 164.485 101.746 164.097 101.418C163.858 101.209 163.709 100.88 163.798 100.671C163.888 100.462 163.798 100.193 163.619 100.074C163.41 99.9543 163.38 99.9841 163.499 100.193C163.619 100.402 163.589 100.552 163.47 100.552C163.081 100.552 158.571 95.922 158.75 95.6831C158.84 95.5636 158.81 95.5338 158.691 95.6234C158.392 95.8324 156.809 94.2494 156.988 93.9209C157.078 93.7715 156.988 93.7118 156.749 93.7417C156.54 93.8014 156.391 93.6222 156.451 93.3832C156.51 93.1443 156.451 93.0248 156.331 93.1742C156.002 93.4728 153.792 91.2626 154.031 90.8743C154.121 90.6951 154.091 90.6353 153.971 90.7847C153.583 91.1132 152.657 90.0977 152.836 89.5601C152.956 89.1121 152.926 89.1121 152.657 89.5003C152.359 89.9185 152.179 89.7094 152.329 89.0523C152.359 88.903 152.269 88.8432 152.149 88.9926C151.881 89.2614 150.507 88.0069 150.716 87.6784C150.805 87.529 150.686 87.4992 150.447 87.5589C150.238 87.6485 149.82 87.4693 149.491 87.1407C149.043 86.6031 149.013 86.4538 149.372 86.0058C149.76 85.5279 149.73 85.498 149.252 85.8863C148.774 86.2746 148.595 86.185 147.4 85.0201C146.684 84.3033 146.176 83.5864 146.265 83.4371C146.355 83.2579 146.325 83.228 146.146 83.3176C145.817 83.5267 139.754 77.4933 139.216 76.418C139.007 76.0596 138.948 75.5817 139.067 75.4025C139.187 75.2233 139.157 75.1635 138.948 75.283C138.559 75.522 135.782 70.5339 136.05 70.0859C136.17 69.9067 136.08 69.8171 135.841 69.847C135.632 69.9067 135.483 69.6976 135.483 69.4288C135.513 69.1301 135.393 68.9808 135.214 69.1003C135.035 69.2197 134.975 69.1003 135.095 68.7717C135.214 68.5029 135.184 68.3237 135.035 68.4133C134.706 68.6224 133.422 66.2628 133.691 65.8446C133.84 65.6355 133.78 65.6057 133.512 65.755C133.213 65.9342 133.153 65.8745 133.303 65.4862C133.422 65.1875 133.392 65.0382 133.213 65.1576C132.825 65.3966 131.988 63.6642 132.197 63.0071C132.317 62.6188 132.287 62.5591 132.078 62.8578C131.869 63.1863 131.779 63.1564 131.6 62.7682C131.242 61.8422 131.421 61.215 132.108 60.8566C132.705 60.5579 133.004 60.5579 133.93 60.9462C134.647 61.2449 134.975 61.5436 134.826 61.7526C134.706 61.9916 134.736 62.0214 134.975 61.902C135.363 61.663 139.515 63.8136 139.336 64.1421C139.246 64.2616 139.426 64.3213 139.724 64.2914C139.993 64.2914 140.202 64.4109 140.172 64.62C140.113 64.8291 140.262 64.9187 140.501 64.8291C141.098 64.5901 142.831 65.5459 142.592 65.9641C142.472 66.1433 142.502 66.203 142.711 66.1134C143.159 65.8147 143.995 66.203 143.756 66.5913C143.667 66.7407 143.727 66.8004 143.906 66.7108C144.354 66.4121 145.19 66.8004 144.951 67.1887C144.832 67.3679 144.921 67.3978 145.13 67.2783C145.758 66.89 151.283 70.8027 150.925 71.4001C150.835 71.5793 150.865 71.6391 150.985 71.4897C151.313 71.191 153.553 73.3714 153.314 73.7597C153.225 73.9389 153.255 73.9688 153.434 73.8792C153.703 73.7 155.166 74.9843 155.166 75.4025C155.166 75.522 155.375 75.6116 155.614 75.6116C155.853 75.6116 156.032 75.7908 156.002 75.97C155.943 76.1791 156.002 76.3284 156.152 76.2985C156.48 76.1791 160.692 80.271 160.602 80.6294C160.572 80.8087 160.722 80.958 160.901 80.9879C161.528 80.9879 166.068 85.3486 165.859 85.7369C165.769 85.9161 165.799 85.9759 165.919 85.8265C166.307 85.4681 169.324 88.6043 169.145 89.1718C169.025 89.5601 169.055 89.5601 169.294 89.2315C169.533 88.9329 169.832 89.0523 170.757 89.9185L171.952 90.9938L172.43 87.4693C172.669 85.5577 173.535 79.1062 174.312 73.1624C175.118 67.2185 175.835 62.4097 175.925 62.4695C176.014 62.5292 176.014 61.9617 175.955 61.215C175.895 60.4683 175.984 59.9307 176.104 60.0203C176.253 60.1099 176.403 59.3333 176.462 58.3178C176.492 57.3321 177.179 51.7169 177.986 45.8925C178.762 40.0682 179.36 35.1997 179.24 35.11C179.15 35.0204 176.044 34.5724 172.34 34.1244C168.637 33.6764 163.529 33.0491 160.991 32.7504C148.565 31.2272 145.967 30.8986 138.888 30.0623C131.72 29.1961 118.1 27.5533 106.929 26.1794C104.211 25.821 100.388 25.373 98.4163 25.134C96.445 24.8951 90.4713 24.1484 85.1249 23.5211C55.8837 19.9369 50.1191 19.2499 50.0295 19.3694C49.9698 19.3993 49.6412 21.8485 49.2529 24.7457C48.8945 27.643 48.5062 29.9727 48.4166 29.913C48.327 29.8532 48.2374 30.4506 48.2374 31.1973C48.2374 33.4374 44.9818 56.3465 44.7428 55.9582C44.6233 55.7491 44.5935 56.0179 44.6831 56.4958C44.7727 57.0036 44.4143 60.4086 43.9065 64.1122C42.4131 75.0142 41.308 83.1085 38.9782 100.104C38.2614 105.36 37.7835 109.751 37.8731 109.841C38.0822 110.05 38.9185 110.139 67.3532 113.246C77.2097 114.321 87.6338 115.456 90.5012 115.785C93.3685 116.113 100.716 116.89 106.779 117.577C124.312 119.458 155.584 122.893 160.991 123.52C166.875 124.178 167.562 124.237 167.562 123.879ZM31.8994 122.445C31.6007 122.385 31.1228 122.385 30.854 122.445C30.5553 122.535 30.7943 122.595 31.3618 122.595C31.9293 122.595 32.1682 122.535 31.8994 122.445ZM22.3415 119.757C22.0429 119.697 21.565 119.697 21.2961 119.757C20.9975 119.847 21.2364 119.906 21.8039 119.906C22.3714 119.906 22.6104 119.847 22.3415 119.757ZM199.222 117.726C199.222 117.696 198.864 117.368 198.416 116.949C197.818 116.442 197.729 116.412 198.117 116.86C198.386 117.188 198.565 117.547 198.475 117.636C198.386 117.696 198.535 117.786 198.774 117.786C199.013 117.786 199.222 117.756 199.222 117.726ZM181.301 101.03C181.092 100.82 180.883 100.85 180.644 101.119C180.315 101.418 180.375 101.448 180.853 101.268C181.391 101.059 181.42 101.089 181.002 101.627C180.584 102.165 180.584 102.165 181.092 101.776C181.45 101.478 181.54 101.268 181.301 101.03ZM176.671 96.0714C176.582 95.922 176.283 95.8922 176.044 95.9818C175.686 96.1013 175.656 96.2207 175.955 96.3999C176.403 96.6688 176.91 96.4597 176.671 96.0714ZM170.309 92.1885C169.951 91.86 169.563 91.5911 169.443 91.5911C169.174 91.621 170.519 92.7859 170.787 92.7859C170.877 92.7859 170.668 92.5171 170.309 92.1885ZM148.744 84.8708C148.535 84.6318 148.267 84.4825 148.147 84.5721C148.028 84.6617 147.759 84.5123 147.55 84.2734C147.341 84.0344 147.281 83.8254 147.371 83.8254C147.49 83.8254 147.49 83.676 147.4 83.5267C147.281 83.3475 147.072 83.2877 146.923 83.4072C146.743 83.5267 146.893 83.8851 147.281 84.3033C147.639 84.6915 148.028 84.9305 148.177 84.8708C148.296 84.7811 148.476 84.8409 148.595 85.0201C148.685 85.1694 148.864 85.3188 148.954 85.3188C149.043 85.3188 148.954 85.1097 148.744 84.8708ZM142.771 74.5363C142.771 74.7155 142.89 74.8648 143.04 74.8648C143.189 74.8648 143.279 74.6259 143.249 74.3571C143.249 74.0584 143.398 73.8493 143.607 73.9091C143.786 73.9389 143.936 73.8493 143.906 73.7C143.846 73.5506 143.936 73.4312 144.115 73.4312C144.264 73.4312 144.473 73.1624 144.593 72.8637C144.682 72.565 144.951 72.326 145.19 72.326C145.429 72.326 145.578 72.0871 145.519 71.7585C145.459 71.4599 145.519 71.2806 145.668 71.3702C145.788 71.4599 145.937 71.2209 145.937 70.8326C145.967 70.295 145.578 69.9366 143.966 69.0106C142.831 68.3834 141.994 67.7263 142.084 67.577C142.173 67.4276 142.114 67.3978 141.934 67.5172C141.725 67.6367 141.188 67.4874 140.68 67.1887C139.814 66.6809 139.784 66.6809 139.306 67.338C139.067 67.6964 138.679 67.9055 138.5 67.8159C138.291 67.6964 138.231 67.7263 138.38 67.8458C138.5 67.9951 138.41 68.2938 138.171 68.5626C137.813 68.9808 137.902 69.3093 139.067 71.2806C139.784 72.5052 140.322 73.7 140.232 73.9091C140.142 74.1181 140.202 74.2077 140.381 74.1181C140.531 74.0285 140.799 74.2376 140.979 74.5662C141.277 75.1337 141.337 75.1337 142.024 74.6856C142.472 74.387 142.771 74.3272 142.771 74.5363ZM151.224 72.3858C151.313 72.1468 151.134 71.9975 150.686 71.9975C150.298 71.9975 150.059 72.117 150.118 72.2364C150.208 72.3858 150.417 72.4156 150.566 72.326C150.716 72.2066 150.835 72.2962 150.835 72.4455C150.835 72.8935 151.044 72.8637 151.224 72.3858ZM138.022 66.2926C138.41 65.8147 138.619 65.5459 138.47 65.6654C138.201 65.8745 136.827 65.2472 135.841 64.4408C135.184 63.9032 135.154 64.172 135.782 65.3966C136.379 66.5316 136.797 67.0991 137.066 67.0991C137.185 67.0991 137.604 66.7407 138.022 66.2926ZM190.769 36.4243C190.68 36.1256 190.62 36.3645 190.62 36.932C190.62 37.4995 190.68 37.7385 190.769 37.4696C190.829 37.171 190.829 36.6931 190.769 36.4243ZM76.702 7.75062C76.2539 7.69088 75.4475 7.69088 74.9099 7.75062C74.3722 7.81035 74.7307 7.87009 75.7163 7.87009C76.702 7.87009 77.15 7.81035 76.702 7.75062ZM65.352 5.06246C65.0533 5.00273 64.5754 5.00273 64.3066 5.06246C64.0079 5.15207 64.2469 5.21181 64.8144 5.21181C65.3819 5.21181 65.6208 5.15207 65.352 5.06246ZM54.8981 3.86773C54.5994 3.80799 54.1215 3.80799 53.8527 3.86773C53.554 3.95733 53.7929 4.01707 54.3604 4.01707C54.9279 4.01707 55.1669 3.95733 54.8981 3.86773Z" fill="var(--fill-0, #C7C7C7)"/>
<path id="Vector_2" d="M26.7627 100.044C26.4342 99.954 25.9563 99.6553 25.7173 99.3865C25.4485 99.1177 25.3589 99.058 25.5082 99.2671C25.6576 99.506 25.6277 99.6553 25.4485 99.6553C24.9407 99.6553 23.2382 97.5347 23.4175 97.0568C23.5071 96.8178 23.4473 96.7282 23.298 96.8178C22.7604 97.1464 22.9396 93.7414 23.5071 92.8454C24.1343 91.8597 24.5226 91.561 24.9109 91.8C25.0602 91.8896 25.0901 91.8298 24.9706 91.6506C24.6719 91.1727 26.3446 90.3961 27.6289 90.3961C29.7197 90.3961 32.0494 92.3675 32.378 94.4881C32.6169 95.7725 32.0196 98.0126 31.4521 98.0126C31.2728 98.0126 31.004 98.1321 30.8547 98.2814C30.7053 98.4307 30.7651 98.4606 31.004 98.3411C31.1832 98.2217 31.3624 98.2515 31.3624 98.4307C31.3624 99.2372 28.1068 100.372 26.7627 100.044ZM29.1522 97.7139C29.5106 97.475 29.8989 97.3853 30.0184 97.5048C30.108 97.6243 30.1976 97.5944 30.1378 97.4152C30.108 97.2659 30.2274 96.7282 30.4365 96.2205C31.1832 94.3985 29.8392 92.4869 27.7782 92.4869C26.1952 92.4869 25.1797 93.1739 24.7615 94.5479C24.4927 95.4738 24.5226 95.8322 24.9109 96.5789C25.1498 97.0867 25.2693 97.5944 25.1498 97.7139C25.0304 97.8632 25.0901 97.8931 25.2394 97.7736C25.4186 97.684 25.7472 97.7139 25.9861 97.8931C26.6731 98.3113 28.4652 98.2217 29.1522 97.7139Z" fill="var(--fill-0, #C7C7C7)"/>
<path id="Vector_3" d="M12.0072 97.9828C9.31902 96.6088 8.60218 93.2934 10.454 90.6949C12.9928 87.1107 18.8172 89.1716 18.8172 93.6519C18.8172 95.444 18.3691 96.788 17.8614 96.4894C17.6822 96.3699 17.6224 96.3998 17.712 96.579C17.8315 96.7582 17.5627 97.2062 17.1744 97.5646C16.1887 98.4905 13.4409 98.6996 12.0072 97.9828ZM15.8901 96.3101C16.1589 96.2803 16.3381 96.1907 16.2783 96.1011C16.1887 96.0413 16.2783 95.8024 16.4576 95.5933C17.1147 94.7869 17.264 93.5025 16.7861 92.4571C16.5472 91.8896 16.3082 91.352 16.3082 91.2325C16.2783 91.1429 16.1589 90.9338 16.0095 90.7845C15.8303 90.6352 15.8303 90.7248 15.9797 90.9637C16.1887 91.2923 16.0991 91.352 15.6511 91.1429C14.6655 90.665 12.9032 90.8442 12.2163 91.4416C9.97612 93.4727 11.4397 96.9971 14.3369 96.5192C14.9044 96.4296 15.6212 96.34 15.8901 96.3101Z" fill="var(--fill-0, #C7C7C7)"/>
<path id="Vector_4" d="M28.9729 84.6315C27.6886 84.303 26.2251 83.2875 26.3744 82.8096C26.464 82.6304 26.6731 82.5109 26.8523 82.5706C27.0614 82.6005 27.151 82.5109 27.0315 82.3317C26.8822 82.0927 26.703 82.0927 26.4043 82.3615C26.0757 82.6304 25.9562 82.6005 25.8069 82.2421C25.7173 81.9733 25.7472 81.6148 25.8666 81.4058C25.9861 81.1668 25.9562 81.1369 25.7472 81.2564C25.1498 81.6148 25.329 78.8371 25.9861 77.5826C26.4043 76.7463 26.7328 76.4476 27.2705 76.4476C27.6886 76.4476 27.9873 76.5969 27.9873 76.8658C27.9873 77.1047 27.8081 77.2242 27.5094 77.1047C27.151 76.9554 27.1211 77.0151 27.3899 77.2839C27.5691 77.4631 27.8678 77.5229 28.0172 77.4333C28.4951 77.1346 28.1964 76.2087 27.6587 76.2385C26.9419 76.2983 27.0614 76.1191 28.0769 75.6113C29.0626 75.1035 31.3624 75.0139 31.3624 75.4918C31.3624 75.6412 31.4819 75.7009 31.6611 75.6113C32.139 75.3126 33.722 76.7164 34.3493 78.0008C35.0661 79.4942 35.096 80.45 34.4687 82.033C33.6324 84.0939 31.2429 85.2289 28.9729 84.6315ZM31.2728 83.0485C31.1832 82.9589 31.4819 82.5408 31.9598 82.1525C33.0948 81.1967 33.3337 79.9721 32.6766 78.6877C32.3779 78.1501 32.1689 77.6125 32.1987 77.493C32.2286 77.3437 32.1689 77.2839 32.0494 77.3138C31.9 77.3437 31.3326 77.254 30.7352 77.1346C29.9287 76.9554 29.3911 77.045 28.6444 77.4333C28.0769 77.7319 27.5691 77.9709 27.4795 77.941C27.3899 77.9112 27.3003 78.1202 27.2705 78.389C27.2705 78.6579 27.1808 79.524 27.1211 80.3006C27.0614 81.0772 27.0614 81.6447 27.151 81.5551C27.2107 81.4954 27.599 81.7343 27.9873 82.0927C28.3756 82.4511 29.2418 82.8394 29.9586 82.9589C30.6456 83.0485 31.2728 83.168 31.3326 83.1979C31.3923 83.1979 31.3923 83.1381 31.2728 83.0485ZM33.8415 82.6304C34.1402 82.3317 34.0506 82.3317 33.5129 82.6005C33.1545 82.8096 32.7065 82.8693 32.5572 82.7797C32.4078 82.6901 32.2286 82.7498 32.139 82.8992C31.8702 83.3173 33.4233 83.0784 33.8415 82.6304Z" fill="var(--fill-0, #C7C7C7)"/>
<path id="Vector_5" d="M15.0831 83.0191C14.2767 82.8101 13.7092 82.3322 13.9182 82.0036C14.0078 81.8543 13.8884 81.8244 13.6793 81.8841C13.0222 82.153 11.9469 79.9128 11.9469 78.3597C11.9469 76.4481 12.1859 75.9403 12.8131 76.4182C13.2313 76.7766 13.2611 76.7468 12.8728 76.2689C12.4846 75.791 12.5443 75.6416 13.2611 74.9248C13.9481 74.2378 14.0974 74.1781 14.3663 74.5664C14.6351 74.9547 14.6649 74.9248 14.5156 74.5067C14.2169 73.4911 17.3232 73.2522 18.9063 74.1781C20.0711 74.8651 21.2957 76.5974 21.0866 77.3143C21.0269 77.613 21.0866 77.8519 21.236 77.8519C21.3853 77.8519 21.5048 78.1805 21.5048 78.5986C21.5048 79.0168 21.3853 79.3453 21.2659 79.3453C21.1165 79.3453 21.0269 79.644 21.0269 80.0323C21.0568 80.4206 20.9074 80.6595 20.6685 80.5998C20.4295 80.5699 20.3399 80.6595 20.4594 80.8387C20.7282 81.2569 20.0413 82.0932 19.6231 81.8244C19.4439 81.7348 19.414 81.7945 19.5335 82.0036C20.0114 82.7503 16.9349 83.4672 15.0831 83.0191ZM18.3686 81.018C18.6972 80.9582 18.966 80.8089 18.966 80.6595C19.0257 79.9726 19.4738 79.0466 19.7127 79.196C19.862 79.2856 19.8322 78.8674 19.6828 78.2999C19.5036 77.7324 19.4738 77.1052 19.5634 76.9559C19.6828 76.7766 19.653 76.687 19.5036 76.7169C19.1751 76.8364 17.592 75.5819 17.8011 75.4027C17.8907 75.3131 17.2934 75.3728 16.5168 75.5222C15.7402 75.6715 14.9039 75.8209 14.7247 75.8507C14.5156 75.8507 14.3961 75.9403 14.4857 76.0001C14.5753 76.0897 14.3961 76.4182 14.1273 76.7169C13.4105 77.5234 13.4403 79.4349 14.1871 80.2414C14.9935 81.1374 15.7999 81.466 16.8752 81.2569C17.383 81.1374 18.0401 81.0478 18.3686 81.018Z" fill="var(--fill-0, #C7C7C7)"/>
<path id="Vector_6" d="M25.7465 68.8017C22.1025 68.2939 19.2651 67.7861 19.4741 67.6667C19.6832 67.5472 19.2949 67.5173 18.6079 67.6069C17.0249 67.816 16.1289 67.0096 16.1289 65.3967C16.1289 64.2915 16.8457 59.0048 17.1743 57.6309C17.4729 56.3167 18.5482 55.9583 21.3558 56.1972C22.7597 56.3167 23.8349 56.5258 23.7453 56.6751C23.6258 56.8244 23.7752 56.8543 24.0141 56.7647C24.7011 56.4959 33.7512 57.84 34.707 58.3179C35.2446 58.6165 35.5732 59.0646 35.6927 59.7217C35.9017 60.7969 34.8563 67.4875 34.3187 68.7121C34.02 69.3094 33.124 69.8471 32.5565 69.7574C32.4669 69.7276 29.4203 69.3094 25.7465 68.8017ZM33.4824 63.6643C33.7512 61.5436 33.9603 59.7515 33.9304 59.7515C33.8707 59.6619 20.0715 57.84 19.6235 57.84C19.1157 57.84 17.8015 65.3369 18.2495 65.6356C18.7872 65.9642 30.9735 67.6667 32.2578 67.5771C32.9746 67.5472 33.0045 67.4576 33.4824 63.6643Z" fill="var(--fill-0, #C7C7C7)"/>
<path id="Vector_7" d="M33.2142 51.0597C33.035 51 32.9454 50.7611 33.035 50.6117C33.1545 50.4026 33.0947 50.3728 32.9155 50.4922C31.9597 51.0896 30.1676 48.4612 30.1676 46.46C30.1676 45.2354 31.0936 43.3238 31.6312 43.4433C31.8403 43.4732 31.9299 43.3836 31.8104 43.2044C31.5117 42.6966 33.5129 41.7109 34.857 41.7109C36.2907 41.7109 37.0971 41.9499 36.8582 42.3382C36.7685 42.4875 36.9478 42.5174 37.2166 42.3979C37.6049 42.2486 37.6945 42.3382 37.575 42.6667C37.4555 42.9654 37.5451 43.1148 37.8438 43.0849C38.5905 43.0252 39.4866 44.5484 39.6658 46.1315C39.9346 49.0586 37.9633 51.2987 35.0959 51.239C34.2895 51.239 33.4233 51.1494 33.2142 51.0597ZM36.2309 49.1482C37.0971 48.7599 37.9334 47.4158 37.9334 46.3704C37.9334 45.9523 37.5451 45.1757 37.0672 44.638C36.3504 43.8316 35.992 43.6524 34.9466 43.6524C33.9012 43.6524 33.5428 43.8316 32.8259 44.638C30.5858 47.1171 33.1843 50.552 36.2309 49.1482Z" fill="var(--fill-0, #C7C7C7)"/>
<path id="Vector_8" d="M19.5635 49.3574C18.3987 48.8496 17.5026 47.8341 17.8013 47.3562C17.9208 47.1471 17.8909 47.0575 17.7117 47.177C17.2935 47.4458 16.726 46.0718 16.726 44.8174C16.726 41.7111 19.4142 39.6203 22.4906 40.2774C24.2827 40.6358 24.671 41.1137 23.9542 42.0097C23.4763 42.6071 23.327 42.637 22.7296 42.3084C22.3114 42.0994 21.6245 42.0396 21.0868 42.1292C20.5791 42.2487 19.8025 42.3682 19.3545 42.398C18.9064 42.4578 18.4584 42.5772 18.3389 42.6669C18.2195 42.7863 18.4285 42.8461 18.787 42.7565C19.3843 42.637 19.3843 42.6669 18.9662 43.2941C18.3987 44.1005 18.3987 45.8628 18.9662 46.6692C19.2051 47.0276 19.2947 47.4159 19.1753 47.5354C19.0558 47.6847 19.1155 47.6847 19.3246 47.5653C19.5038 47.4757 20.0116 47.5354 20.3999 47.7146C20.9674 47.9834 21.4154 47.9834 22.1322 47.7146C22.8789 47.4458 23.1776 47.4757 23.3867 47.7445C23.5659 48.0432 23.5958 48.0133 23.5062 47.6847C23.4464 47.4458 23.6256 46.9082 23.9243 46.5199C24.6113 45.6836 24.6412 44.668 24.0737 43.5629C23.7152 42.8461 23.7152 42.6669 24.1931 42.0695C24.91 41.2033 25.1191 41.2332 24.9697 42.1591C24.8801 42.6071 24.9398 42.8461 25.1191 42.7565C25.2684 42.637 25.3281 42.4279 25.2385 42.2786C25.1191 42.1292 25.1489 42.0097 25.2385 42.0097C25.3281 42.0097 25.6268 42.4876 25.8658 43.0551C27.5384 47.0874 23.536 51.1196 19.5635 49.3574Z" fill="var(--fill-0, #C7C7C7)"/>
<path id="Vector_9" d="M35.9906 34.1245C33.8102 33.1389 32.5856 30.6299 33.1829 28.4197C33.5712 27.0457 33.9894 26.4185 34.3777 26.6574C34.527 26.7471 34.6166 26.6574 34.5867 26.4185C34.527 26.2094 34.6764 26.0601 34.8854 26.1198C35.1244 26.1497 35.214 26.0601 35.0945 25.8809C34.766 25.3432 36.9762 24.6264 38.3502 24.8355C41.2474 25.3134 43.1291 28.2106 42.3824 31.0481C42.2032 31.7351 41.9642 32.0935 41.7552 31.974C41.5461 31.8247 41.5162 31.8844 41.6357 32.1234C41.9344 32.6013 40.9188 33.7064 40.4111 33.4973C40.1721 33.4376 40.0527 33.4674 40.1423 33.6168C40.3812 33.9752 38.9475 34.5427 37.8424 34.5427C37.3048 34.5128 36.4983 34.3336 35.9906 34.1245ZM39.5449 32.3623C39.7241 32.4519 39.7838 32.422 39.6345 32.3026C39.515 32.1532 39.7241 31.7351 40.0825 31.3468C41.0981 30.2715 40.9786 28.6885 39.7838 27.6431C38.4995 26.4782 37.0957 26.4782 35.7815 27.6132C35.0646 28.2703 34.8556 28.7184 34.8556 29.4949C34.8556 30.8092 35.0348 31.8545 35.214 31.7052C35.2737 31.6156 35.5425 31.7351 35.8114 31.974C36.4685 32.5415 37.3048 32.6909 38.3502 32.3922C38.8281 32.2727 39.3657 32.2428 39.5449 32.3623Z" fill="var(--fill-0, #C7C7C7)"/>
<path id="Vector_10" d="M23.6551 32.8107C23.1175 32.751 22.7591 32.6016 22.8487 32.4224C22.9383 32.2731 22.8487 32.2432 22.6097 32.3328C21.9526 32.5718 20.4294 31.1082 19.8917 29.7044C19.2944 28.2707 19.4437 26.7773 20.3099 25.3436C21.1163 23.9995 22.2215 23.4022 24.0434 23.2827C25.8654 23.1931 27.1497 23.8801 28.3146 25.5826C28.912 26.4487 29.0016 26.9266 28.912 28.42C28.7925 30.5407 27.986 31.9146 27.0303 31.6757C26.5822 31.5562 26.5524 31.5861 26.8511 31.7952C27.1497 32.0043 27.1497 32.1237 26.8809 32.3029C26.2836 32.6614 24.7304 32.9003 23.6551 32.8107ZM25.9251 30.4511C26.3732 30.1823 26.8511 29.9732 26.9705 30.0031C27.1199 30.0329 27.1497 29.9732 27.0601 29.8239C26.9705 29.6745 27.0303 29.1369 27.1497 28.6291C27.3588 28.0019 27.2991 27.4941 27.0004 26.8968C26.6121 26.1799 26.642 26.0306 27.0303 25.5826C27.2692 25.3137 27.4783 24.9852 27.4783 24.8657C27.4783 24.7164 27.2393 24.9254 26.9108 25.3137C26.4329 25.8812 26.2836 25.941 25.8953 25.6423C25.4472 25.254 22.6396 24.9254 22.8487 25.2839C23.0279 25.5826 22.0124 26.0903 21.415 26.0007C21.1462 25.9708 20.967 26.0604 21.0865 26.2098C21.1761 26.3591 21.3851 26.389 21.5644 26.2994C21.8033 26.1501 21.8332 26.2695 21.654 26.6578C21.2059 27.6435 21.415 30.3615 21.9526 30.2719C22.102 30.242 22.2215 30.3615 22.1916 30.5108C22.102 31.0783 25.0888 31.0485 25.9251 30.4511Z" fill="var(--fill-0, #C7C7C7)"/>
<path id="Vector_11" d="M41.1287 107.511C40.9495 107.212 43.548 88.2753 43.787 88.0363C44.4142 87.4091 44.2649 89.6791 43.1 97.863C41.8754 106.644 41.5469 108.197 41.1287 107.511Z" fill="var(--fill-0, #C7C7C7)"/>
<path id="Vector_12" d="M94.9818 98.7295C93.0703 98.4308 88.2316 96.0712 88.3511 95.5037C88.3809 95.2947 88.2913 95.2051 88.142 95.2947C87.9926 95.4141 87.1265 94.8466 86.2603 94.0999C84.7967 92.7857 83.9903 91.8299 84.7967 92.3078C85.0058 92.4572 85.0655 92.3377 84.9461 92.039C84.7967 91.7105 84.6474 91.6507 84.4383 91.8598C84.05 92.2481 82.8851 91.1728 83.1838 90.6651C83.3332 90.4261 83.3033 90.3664 83.0644 90.5157C82.6462 90.7845 78.823 87.1406 79.062 86.6926C79.1516 86.5432 79.1217 86.5134 78.9425 86.603C78.7932 86.6926 78.1659 86.4536 77.5686 86.0653C76.9712 85.6472 76.344 85.3186 76.1648 85.3186C75.9855 85.3186 75.8959 85.229 75.9855 85.0797C76.2544 84.6615 73.8948 85.0797 73.2078 85.5874C72.2819 86.3043 72.0728 88.2457 72.7 90.9339C73.3273 93.7116 73.3273 95.1453 72.7 95.3843C72.4312 95.4739 71.9832 95.444 71.7144 95.2648C70.9677 94.8168 69.8625 91.3819 69.6833 89.0522C69.5041 86.6627 69.982 84.2732 70.6092 84.5122C70.8482 84.6018 70.9975 84.4823 70.9677 84.1836C70.9079 83.4369 73.3273 82.3318 74.9999 82.3318C76.3738 82.3318 78.7932 83.3473 79.749 84.333C80.0775 84.6914 80.1074 84.7511 79.7788 84.5719C79.4801 84.3927 79.4204 84.4525 79.5698 84.6914C79.7191 84.9005 79.8983 84.9901 79.9879 84.9005C80.197 84.6914 85.6032 89.8586 85.4837 90.1872C85.4538 90.3365 85.5136 90.3664 85.6629 90.2768C85.8122 90.1872 86.2304 90.4261 86.5888 90.8144C87.0667 91.3222 87.1563 91.5611 86.8875 91.6507C86.6187 91.7403 86.6784 91.8598 87.0368 91.9793C87.3355 92.0988 87.4849 92.0689 87.3654 91.8897C87.0368 91.3819 87.6939 91.5611 88.2017 92.1286C88.5303 92.487 88.59 92.7857 88.4108 92.9649C88.2017 93.174 88.2316 93.2935 88.5303 93.2935C88.7692 93.2935 88.9186 93.174 88.8289 93.0247C88.5303 92.5766 89.1276 92.7857 89.7549 93.3831C90.1133 93.7116 91.4275 94.5181 92.7118 95.1752C95.2506 96.4894 97.0129 96.7284 98.5362 95.9219C99.0141 95.683 99.4621 95.5635 99.5816 95.6232C99.6712 95.7128 99.701 95.683 99.6114 95.5934C99.5517 95.4739 99.7309 95.0259 100.059 94.5778C100.388 94.1298 100.806 93.1441 101.015 92.3974C101.194 91.6507 101.433 91.0832 101.553 91.143C101.642 91.2027 101.702 89.2613 101.672 86.8718C101.642 83.4369 101.463 81.6448 100.866 78.7476C99.7906 73.4908 99.6413 71.9077 100.059 70.3844C100.567 68.4729 102.18 66.9795 104.181 66.5314C107.527 65.8146 109.289 66.2925 113.799 68.9806C117.234 71.0416 118.578 71.5194 119.653 71.0416C120.161 70.8026 120.579 70.7727 120.967 70.9818C121.266 71.161 121.595 71.161 121.684 71.0117C121.923 70.6533 121.565 70.4143 121.057 70.5935C120.788 70.713 120.937 70.2948 121.475 69.578C121.923 68.891 122.401 68.4131 122.491 68.4729C122.61 68.5326 122.7 68.2937 122.73 67.9054C122.759 66.0237 123.417 59.9007 123.685 58.7657C124.163 56.6749 125.746 55.4503 128.016 55.4503C128.972 55.4503 130.227 56.2866 130.227 56.9138C130.227 57.332 129.54 57.7501 128.285 58.1085C126.224 58.676 126.254 58.6163 125.866 63.3056C125.507 67.7859 124.701 70.6831 123.924 70.2052C123.685 70.0858 123.655 70.1156 123.775 70.3546C124.133 70.8922 122.52 72.8635 121.923 72.6246C121.654 72.535 121.535 72.535 121.654 72.6544C121.983 72.983 120.848 73.6401 119.593 73.8193C118.936 73.9388 117.861 73.8193 117.084 73.5804C115.352 73.0427 111.051 70.5338 111.35 70.2351C111.469 70.0858 111.409 70.0858 111.2 70.2052C110.991 70.3247 110.274 70.1156 109.558 69.7572C108.871 69.3988 107.497 69.0404 106.481 68.9806C104.868 68.8313 104.599 68.891 103.883 69.578C102.419 70.9221 102.27 72.296 103.016 76.4477C104.122 82.5707 104.39 86.1549 104.002 89.6794C103.644 92.9351 102.628 96.0712 101.852 96.3102C101.463 96.4595 101.463 96.3998 101.822 95.9816C102.091 95.6531 102.12 95.4739 101.881 95.4739C101.702 95.4739 101.523 95.6531 101.523 95.8622C101.493 96.0414 101.463 96.3699 101.433 96.5491C101.374 97.2361 99.7309 98.4308 98.6258 98.6101C98.0284 98.7295 97.3116 98.849 97.0726 98.9087C96.8337 98.9386 95.8779 98.8789 94.9818 98.7295ZM86.1408 93.3532C85.8421 92.9948 85.6032 92.6364 85.633 92.5169C85.6629 92.4273 85.633 92.278 85.5733 92.2481C85.5136 92.1884 85.4837 92.3377 85.5434 92.5766C85.6032 93.0545 86.2901 93.9805 86.559 93.9805C86.6486 93.9805 86.4693 93.7116 86.1408 93.3532ZM101.971 68.8612C102.24 69.1001 102.359 69.0702 102.359 68.7417C102.359 68.5027 102.21 68.4131 102.061 68.5027C101.852 68.6222 101.822 68.4729 101.971 68.1443C102.18 67.6067 102.15 67.6067 101.583 68.1145C101.254 68.4131 101.045 68.8014 101.165 68.9806C101.314 69.2196 101.404 69.1897 101.493 68.9508C101.583 68.682 101.732 68.6521 101.971 68.8612Z" fill="var(--fill-0, #C7C7C7)"/>
<path id="Vector_13" d="M44.2047 85.2589C44.2047 83.8551 44.5332 82.8993 44.9215 83.0188C45.2799 83.1383 45.2799 83.2876 44.9514 85.1096C44.7423 86.4835 44.2047 86.5731 44.2047 85.2589Z" fill="var(--fill-0, #C7C7C7)"/>
<path id="Vector_14" d="M171.922 68.0551C171.743 67.7564 174.281 45.8928 174.58 45.0564C174.849 44.3097 175.357 45.0564 175.178 45.9824C175.118 46.52 174.491 51.6574 173.804 57.3921C173.146 63.1567 172.489 67.9655 172.34 68.085C172.221 68.2343 172.011 68.2044 171.922 68.0551Z" fill="var(--fill-0, #C7C7C7)"/>
<path id="Vector_15" d="M175.029 41.8905C175.029 40.5763 175.387 39.9192 175.776 40.5166C176.044 40.9646 175.656 43.2047 175.298 43.2047C175.148 43.2047 175.029 42.6074 175.029 41.8905Z" fill="var(--fill-0, #C7C7C7)"/>
</g>
</svg>
