<svg preserveAspectRatio="none" width="100%" height="100%" overflow="visible" style="display: block;" viewBox="0 0 30 30" fill="none" xmlns="http://www.w3.org/2000/svg">
<g id="Group 238104">
<path id="Vector" d="M27.7869 0.000113606H2.21311C1.63286 -0.00579163 1.07397 0.218729 0.659063 0.624411C0.244158 1.03009 0.00713392 1.5838 0 2.16403V27.8409C0.00842406 28.4203 0.246015 28.9727 0.66078 29.3773C1.07554 29.782 1.6337 30.0058 2.21311 29.9999H27.7869C28.3672 30.0045 28.9257 29.7792 29.3404 29.3733C29.7551 28.9673 29.9922 28.4138 30 27.8335V2.15665C29.9897 1.57812 29.7514 1.02706 29.337 0.623238C28.9225 0.219418 28.3655 -0.00451463 27.7869 0.000113606Z" fill="var(--fill-0, #0076B2)"/>
<path id="Vector_2" d="M4.36256 10.9783H8.92218V25H4.36256V10.9783ZM6.64363 4C7.16659 4 7.67781 4.14825 8.11261 4.42598C8.5474 4.70372 8.88624 5.09847 9.08626 5.56029C9.28627 6.02212 9.33848 6.53026 9.23627 7.02045C9.13406 7.51064 8.88203 7.96084 8.51206 8.3141C8.14209 8.66736 7.67081 8.90781 7.15783 9.00503C6.64485 9.10225 6.11322 9.05187 5.63021 8.86026C5.14719 8.66866 4.73449 8.34444 4.44431 7.92862C4.15413 7.5128 3.9995 7.02406 4 6.52423C4.00067 5.85455 4.27949 5.2125 4.77519 4.73919C5.27089 4.26587 5.94293 4 6.64363 4ZM11.7823 10.9783H16.1531V12.9034H16.2135C16.8228 11.8013 18.3083 10.6391 20.5264 10.6391C25.144 10.6294 26 13.5339 26 17.2998V25H21.4404V18.1781C21.4404 16.5538 21.4102 14.4627 19.0712 14.4627C16.7322 14.4627 16.3344 16.2338 16.3344 18.0722V25H11.7823V10.9783Z" fill="var(--fill-0, white)"/>
</g>
</svg>
