<svg preserveAspectRatio="none" width="100%" height="100%" overflow="visible" style="display: block;" viewBox="0 0 273 135.185" fill="none" xmlns="http://www.w3.org/2000/svg">
<g id="Group 238135">
<path id="Vector" d="M11.6049 0.853963C8.36723 1.89997 4.33265 5.88475 2.48969 9.7699C1.19464 12.6091 1.14483 12.9079 0.79616 25.6094C-0.548702 77.1126 -0.150224 119.003 1.69273 122.589C5.1296 129.214 26.747 132.152 80.8403 133.447C93.1931 133.696 110.427 134.244 119.194 134.593C140.413 135.39 161.632 135.39 168.007 134.543C181.954 132.65 196.349 128.217 210.595 121.294C217.917 117.757 221.055 115.765 221.055 114.669C221.055 114.171 220.855 113.972 220.656 114.271C220.457 114.52 219.959 114.819 219.56 114.918C219.162 115.018 217.02 115.865 214.828 116.861C198.69 123.934 186.238 128.466 182.801 128.466C181.008 128.417 179.464 127.122 178.766 124.98C178.268 123.436 177.969 113.922 178.318 112.029C178.517 111.033 177.621 110.684 177.172 111.581C176.973 111.979 176.425 115.167 175.977 118.754C174.881 127.371 174.433 128.965 173.237 128.965C171.494 128.965 170.597 124.382 170.548 115.416C170.498 111.133 170.348 107.746 170.149 107.895C169.9 107.995 169.751 108.891 169.751 109.788C169.751 111.083 169.601 111.431 169.004 111.232C168.456 111.033 168.256 110.186 168.256 108.493C168.256 106.201 168.356 106.052 169.502 106.052C170.548 106.052 170.747 105.803 170.747 104.657C170.747 103.91 170.846 102.067 170.996 100.573C171.145 98.73 171.096 98.3814 170.846 99.5768C170.647 100.673 170.099 101.519 169.402 101.818C168.207 102.316 168.207 102.267 167.31 118.355C166.812 127.221 166.115 129.712 163.724 130.807C159.241 132.949 125.868 132.999 83.5799 130.957C54.7899 129.562 18.8273 126.773 12.9497 125.428C8.46685 124.432 5.42846 121.892 3.88436 117.757C2.19083 113.274 2.09121 79.5035 3.63531 38.0618C4.5817 12.5593 5.1296 9.42123 8.81552 6.28322C11.8539 3.74292 12.0033 3.74293 46.4717 4.44027C64.0047 4.78894 95.8331 5.18741 117.201 5.38665L156.053 5.68551L158.643 6.88094C163.325 8.97295 166.662 13.5554 168.007 19.7318C169.452 26.3067 169.95 46.131 169.302 70.3883C168.705 92.6532 168.705 92.7529 169.751 93.4502C170.548 93.9981 170.647 94.3468 170.249 95.1437C169.95 95.6916 169.502 95.9905 169.203 95.8411C168.954 95.6418 168.754 95.7414 168.754 95.9905C168.754 96.2893 169.103 96.5882 169.502 96.7874C169.95 96.9369 170.249 96.7874 170.249 96.389C170.249 95.9905 170.448 95.592 170.747 95.4924C171.843 95.0939 172.44 83.4385 172.44 62.7176C172.44 40.8512 171.992 32.9314 169.8 16.4942C169.302 12.8581 169.053 9.7699 169.253 9.67029C169.9 9.27181 171.793 11.0151 172.839 13.0573C176.824 20.8775 178.965 45.085 178.567 78.0092L178.368 95.4924L179.613 95.7414C180.31 95.8909 181.406 95.6916 181.954 95.2932C182.552 94.8947 184.245 94.2471 185.74 93.8985C188.18 93.251 188.479 93.251 189.575 94.1475C190.97 95.1935 191.966 95.343 192.464 94.546C192.862 93.8487 191.767 93.1015 190.322 93.1015C188.28 93.1015 188.678 92.2548 191.567 90.5114C198.491 86.3772 199.636 86.2278 208.851 88.27C211.591 88.8677 211.74 88.9673 210.744 89.5152C210.146 89.8639 209.399 90.4118 209.001 90.7605C208.652 91.1091 206.909 92.1551 205.116 93.1015C202.276 94.546 201.43 94.7452 198.391 94.6456C196.498 94.6456 194.556 94.7951 194.157 95.0939C193.51 95.4924 193.51 95.592 194.257 95.592C194.705 95.592 196.249 95.8411 197.694 96.1399L200.284 96.6878L199.089 97.6342C198.441 98.1323 196.997 98.73 195.901 98.9293C194.556 99.2281 193.759 99.7262 193.41 100.424C193.111 101.171 192.215 101.719 190.571 102.117C188.828 102.516 188.18 102.914 188.18 103.562C188.18 104.608 187.184 105.106 185.839 104.757C185.341 104.608 184.494 104.857 183.946 105.255C183 106.002 183 106.002 184.544 106.052C185.441 106.052 186.985 105.604 187.981 105.056C189.675 104.06 189.874 104.06 190.721 104.857C191.219 105.305 191.617 106.052 191.567 106.5C191.418 108.343 191.717 109.041 192.613 109.041C194.357 109.041 195.154 109.638 195.154 110.834C195.154 111.88 195.303 112.029 196.449 111.73C197.395 111.481 197.694 111.531 197.445 111.979C197.196 112.328 197.445 112.527 198.092 112.527C199.338 112.527 199.886 110.834 199.487 108.094C199.238 106.251 199.288 106.201 201.778 105.056C203.472 104.309 204.368 104.109 204.518 104.508C204.817 105.355 205.813 105.155 206.759 104.06C207.208 103.512 207.407 103.063 207.108 103.063C206.859 103.063 206.51 103.263 206.361 103.562C205.962 104.209 205.116 104.209 205.116 103.611C205.116 103.362 205.514 103.014 206.012 102.864C206.51 102.665 207.357 102.167 207.905 101.669C208.403 101.171 209.748 100.125 210.844 99.3277C211.939 98.5308 213.832 97.0365 215.077 96.0901C216.323 95.0939 218.415 93.4502 219.71 92.4042C222.399 90.2624 222.599 89.2662 219.909 91.3084C218.963 92.0057 218.066 92.6034 217.867 92.6034C217.668 92.6034 216.671 93.251 215.675 94.0977C213.085 96.1399 204.916 100.274 205.315 99.3277C205.564 98.6802 205.215 98.5806 202.974 98.8795C200.583 99.2281 200.433 99.1783 201.081 98.3814C201.479 97.9331 203.372 96.5882 205.315 95.4426C213.384 90.611 219.062 86.5765 222.798 83.04L225.787 80.2008L224.79 79.2046C223.944 78.3579 222.15 78.0092 213.085 76.9134C195.602 74.8712 183.498 73.1278 182.851 72.5799C181.257 71.2849 180.808 67.4993 180.211 50.2652C179.513 30.8394 178.517 22.571 176.027 15.4482C173.337 7.77751 171.245 5.58589 165.866 4.88855C155.754 3.5935 124.623 2.49769 79.097 1.94978C54.9393 1.65092 42.7857 1.30226 37.5059 0.754353C27.2949 -0.291651 14.8923 -0.24185 11.6049 0.853963ZM193.61 75.967C193.908 76.216 194.207 76.0168 188.429 79.5533C184.992 81.6951 183 82.6415 181.854 82.6415C180.011 82.6415 180.011 82.6415 180.759 79.0552C181.605 74.9708 181.605 74.9708 187.931 75.3693C190.92 75.5685 193.51 75.8176 193.61 75.967ZM208.254 77.6107L210.196 77.9096L206.51 80.4499C201.629 83.8867 199.039 85.132 196.897 85.132C195.303 85.132 193.261 84.8829 186.188 83.8369L184.494 83.5381L185.59 82.7411C186.188 82.243 188.579 80.8982 190.92 79.7525C193.211 78.5571 195.253 77.3617 195.452 77.1126C195.751 76.5647 204.119 76.9134 208.254 77.6107ZM222.499 79.2046C223.346 79.5035 224.043 80.0514 224.043 80.4001C224.043 81.0476 221.752 82.9403 216.671 86.427L214.081 88.27L211.441 87.4232C210.047 86.9749 207.158 86.3274 205.116 85.9787L201.38 85.3312L203.422 84.2852C204.568 83.6875 206.66 82.1932 208.104 80.948L210.794 78.6567H215.825C218.614 78.6567 221.603 78.9058 222.499 79.2046ZM187.134 85.3312C189.226 85.7297 191.767 86.2278 192.813 86.3772C193.859 86.5266 194.556 86.8753 194.406 87.1742C193.859 88.0707 184.694 92.0555 182.552 92.3544C179.563 92.7529 179.215 92.3544 179.812 89.1168C180.709 84.1856 180.808 84.1358 187.134 85.3312ZM181.207 94.0977C181.207 95.1437 180.011 95.4924 179.464 94.5958C179.065 93.8985 179.613 93.1015 180.51 93.1015C180.908 93.1015 181.207 93.5498 181.207 94.0977Z" fill="var(--fill-0, #C7C7C7)"/>
<path id="Vector 214" d="M189.526 110.328L206.71 102.608L211.691 107.589L197.744 113.815L189.526 110.328Z" fill="var(--fill-0, #383838)"/>
<path id="Vector 217" d="M254.278 88.6612C253.681 89.2589 236.928 98.8722 228.626 103.604L226.634 103.355L254.029 87.9141L254.278 88.6612Z" fill="var(--fill-0, #C7C7C7)"/>
<path id="Vector_2" d="M19.325 19.0841C18.0798 22.4213 15.9877 32.8814 14.7923 41.7973C13.8957 48.3722 13.8957 62.5181 14.7923 64.4607L15.4896 65.955L15.8881 63.7136C16.0874 62.4683 16.4858 56.4413 16.8345 50.2649C17.482 37.0654 17.7809 34.5251 19.8231 26.705C21.5166 20.0305 21.6162 19.2335 20.5702 18.3867C19.9725 17.8886 19.7733 17.9883 19.325 19.0841Z" fill="var(--fill-0, #C7C7C7)"/>
<path id="Vector_3" d="M86.07 22.4219L84.4263 24.0159L84.7749 22.671C85.024 21.7246 84.9244 21.3759 84.3765 21.3759C83.2308 21.3759 82.4837 22.7208 82.4837 24.9622C82.5335 30.1424 85.4225 32.6827 89.5069 31.039C91.7981 30.1424 93.5414 28.2497 93.5414 26.7554C93.5414 24.2151 90.6525 20.8778 88.411 20.8778C88.0126 20.8778 86.9666 21.5752 86.07 22.4219ZM90.254 24.1653C91.5491 24.6634 91.2502 27.1539 89.7559 28.2995C88.0126 29.6443 85.7213 29.6942 85.3228 28.3493C85.0738 27.6021 85.4723 26.855 86.6179 25.6098C88.3114 23.8664 88.8593 23.6174 90.254 24.1653Z" fill="var(--fill-0, #C7C7C7)"/>
<path id="Vector_4" d="M183.448 66.2037C184.544 66.4527 192.414 66.8512 200.882 67.15C232.311 68.2957 244.017 69.1424 254.875 71.2344C263.492 72.928 269.37 75.7173 269.37 78.1082C269.37 78.8055 259.906 84.6332 255.921 86.4264C254.626 87.0241 252.086 89.4648 252.484 89.8135C252.584 89.9131 255.473 88.7675 258.86 87.2732C262.247 85.8287 265.186 84.7329 265.335 84.9321C265.485 85.0815 265.236 85.4302 264.738 85.6793C264.289 85.9781 264.04 86.4264 264.19 86.7253C264.389 87.0739 264.289 87.1237 263.99 86.9245C263.243 86.4762 260.354 88.618 260.753 89.2656C260.952 89.5644 260.753 89.664 260.354 89.5146C259.956 89.3652 259.209 89.5146 258.661 89.9131C258.163 90.3116 258.013 90.6104 258.312 90.6104C258.661 90.6104 258.91 90.8595 258.91 91.1583C258.91 91.4572 258.561 91.5568 258.113 91.4074C257.216 91.0587 254.327 92.553 254.726 93.2005C255.174 93.9477 253.132 95.5416 251.14 96.0397C250.094 96.2887 249.595 96.488 250.143 96.5378C250.94 96.5876 250.99 96.6872 250.392 97.4343C249.944 97.9324 250.691 97.6834 252.186 96.8366C253.58 96.0397 254.776 95.2427 254.925 95.0933C255.075 94.894 255.573 94.5952 256.071 94.4458C256.619 94.2465 257.117 93.6488 257.266 93.0511C257.416 92.4534 257.814 92.1545 258.213 92.3039C258.611 92.4534 258.91 92.3538 258.91 92.0549C258.91 91.756 259.109 91.6564 259.408 91.8557C260.055 92.2541 266.63 87.2732 269.519 84.185C274.201 79.204 274.152 76.7633 269.42 74.223C262.247 70.3877 245.262 67.698 219.311 66.2037C209.15 65.6059 180.559 65.6558 183.448 66.2037Z" fill="var(--fill-0, #C7C7C7)"/>
<path id="Vector_5" d="M14.6928 77.9591C14.0951 78.6067 14.3441 81.7447 15.3403 85.8789C15.8882 88.0705 16.3365 90.2621 16.3365 90.7104C16.3365 91.2085 16.5358 91.607 16.735 91.607C17.0339 91.607 17.1335 87.3234 16.8844 81.3462C16.8346 79.6527 15.3403 77.3614 14.6928 77.9591Z" fill="var(--fill-0, #C7C7C7)"/>
<path id="Vector_6" d="M229.772 102.566C229.572 102.865 229.024 102.964 228.526 102.815C227.978 102.665 226.683 103.114 225.239 104.06C223.944 104.857 222.599 105.554 222.3 105.554C222.001 105.554 220.756 106.202 219.511 106.949C218.315 107.696 216.223 108.742 214.829 109.24C213.484 109.738 209.997 111.282 207.158 112.627C204.269 113.972 198.89 116.214 195.204 117.608C185.64 121.145 182.701 122.739 182.701 124.333C182.701 125.329 183.449 125.179 190.671 122.44C204.269 117.359 234.155 102.068 230.569 102.068C230.319 102.068 229.921 102.317 229.772 102.566Z" fill="var(--fill-0, #C7C7C7)"/>
<path id="Vector_7" d="M177.72 104.06C177.72 104.707 177.969 105.056 178.368 104.906C178.667 104.807 178.966 104.408 178.966 104.06C178.966 103.711 178.667 103.313 178.368 103.163C177.969 103.064 177.72 103.412 177.72 104.06Z" fill="var(--fill-0, #C7C7C7)"/>
<path id="Vector_8" d="M233.657 106.65C229.772 109.29 229.373 109.49 227.331 110.336C225.787 111.034 225.588 111.283 226.235 111.631C227.182 112.129 227.032 112.229 232.113 108.842C234.255 107.447 236.098 106.053 236.197 105.704C236.546 104.807 236.397 104.857 233.657 106.65Z" fill="var(--fill-0, #C7C7C7)"/>
<path id="Vector_9" d="M179.314 107.546C179.314 108.492 179.414 108.891 179.563 108.393C179.663 107.944 179.663 107.148 179.563 106.649C179.414 106.201 179.314 106.6 179.314 107.546Z" fill="var(--fill-0, #C7C7C7)"/>
<path id="Vector 213" d="M171.405 93.4179L170.819 102.009C170.778 102.602 170.285 103.063 169.69 103.063C169.045 103.063 168.53 102.525 168.559 101.88L168.95 93.2785C168.98 92.622 169.521 92.1051 170.178 92.1051C170.89 92.1051 171.453 92.7078 171.405 93.4179Z" fill="var(--fill-0, #C7C7C7)"/>
<path id="Vector 215" d="M182.303 93.6422L178.817 92.1479L178.568 92.3969L177.073 112.072H178.319L180.809 95.6346L182.303 93.6422Z" fill="var(--fill-0, #C7C7C7)"/>
<path id="Vector 216" d="M170.101 108.336L170.599 104.849C170.267 104.434 169.403 103.952 168.606 105.347C167.809 106.742 168.108 109.913 168.357 111.324H170.101V108.336Z" fill="var(--fill-0, #C7C7C7)"/>
<path id="Vector 218" d="M250.045 96.1327C261.999 89.3585 264.988 86.1707 264.988 85.4236L248.799 93.1441L250.045 96.1327Z" fill="var(--fill-0, #F5F5F5)"/>
<path id="Vector 219" d="M219.412 115.06C249.098 99.5197 262.331 88.6612 265.237 85.1745L266.731 86.9179C255.972 95.4851 231.034 109.913 219.91 116.057L219.412 115.06Z" fill="var(--fill-0, #C7C7C7)"/>
</g>
</svg>
