<svg preserveAspectRatio="none" width="100%" height="100%" overflow="visible" style="display: block;" viewBox="0 0 60 58" fill="none" xmlns="http://www.w3.org/2000/svg">
<g id="Group 238152">
<path id="Vector" d="M28.9366 1.1651C25.4096 4.67735 27.0374 17.6457 31.107 21.1579C34.3627 23.8596 35.4479 23.5895 36.8044 20.3474C40.6027 10.351 34.634 -4.23836 28.9366 1.1651Z" fill="var(--fill-0, #676767)"/>
<path id="Vector_2" d="M40 30.5C40 33.5 43.1429 35 50 35C56.8571 35 60 33.5 60 30.5C60 27.5 56.8571 26 50 26C43.1429 26 40 27.5 40 30.5Z" fill="var(--fill-0, #676767)"/>
<path id="Vector_3" d="M0.316344 29.401C-0.527241 30.8425 0.316344 33.1489 2.8471 34.0138C8.7522 36.3202 20 34.3021 20 30.8425C20 26.8063 2.56591 25.3648 0.316344 29.401Z" fill="var(--fill-0, #676767)"/>
<path id="Vector_4" d="M28.0294 38.4744C25.4583 45.7965 28.0294 58 32.1433 58C34.9715 58 36 55.0169 36 47.4236C36 36.5761 30.8577 30.8811 28.0294 38.4744Z" fill="var(--fill-0, #676767)"/>
</g>
</svg>
