<svg preserveAspectRatio="none" width="100%" height="100%" overflow="visible" style="display: block;" viewBox="0 0 30.7246 23.0498" fill="none" xmlns="http://www.w3.org/2000/svg">
<g id="Group 238103">
<path id="Vector" d="M6.98301 23.0497V11.1785L3.30139 7.81036L0 5.94128V20.9547C0 22.1139 0.939158 23.0497 2.09495 23.0497H6.98301Z" fill="var(--fill-0, #4285F4)"/>
<path id="Vector_2" d="M23.7416 23.0496H28.6297C29.7889 23.0496 30.7246 22.1103 30.7246 20.9546V5.94128L26.9853 8.08208L23.7416 11.1784V23.0496Z" fill="var(--fill-0, #34A853)"/>
<path id="Vector_3" d="M6.98334 11.178L6.48237 6.53962L6.98334 2.10019L15.3629 8.38493L23.7425 2.10019L24.3028 6.29994L23.7425 11.178L15.3629 17.4628L6.98334 11.178Z" fill="var(--fill-0, #EA4335)"/>
<path id="Vector_4" d="M23.7416 2.1008V11.1786L30.7246 5.94144V3.14821C30.7246 0.557577 27.7673 -0.919271 25.697 0.634389L23.7416 2.1008Z" fill="var(--fill-0, #FBBC04)"/>
<path id="Vector_5" d="M0 5.9415L3.21162 8.3503L6.98301 11.1787V2.10085L5.02764 0.634444C2.9537 -0.919336 0 0.557631 0 3.14815V5.9415Z" fill="var(--fill-0, #C5221F)"/>
</g>
</svg>
