<svg preserveAspectRatio="none" width="100%" height="100%" overflow="visible" style="display: block;" viewBox="0 0 171.61 143.883" fill="none" xmlns="http://www.w3.org/2000/svg">
<g id="Group 238150">
<path id="Vector" d="M21.4599 32.9571C16.2837 34.6403 15.9519 34.8253 16.504 36.8712C16.8881 38.2944 16.5705 39.239 15.7699 39.4551C14.9693 39.6711 14.6517 40.6157 15.0118 41.95C15.4679 43.6401 15.0542 44.2289 12.4407 45.5068C10.6447 46.2777 7.87026 47.3128 6.35808 47.7209C4.75694 48.153 3.44667 48.602 3.38172 48.715C3.28011 50.4601 23.7131 127.589 26.1192 134.383L29.2865 143.644L53.8372 137.018C67.4469 133.345 86.7184 127.667 96.9168 124.438C107.002 121.144 127.875 115.034 143.127 110.727L171.01 103.011L158.407 56.3113L145.804 9.61146L143.525 9.65388C142.273 9.61014 133.394 11.7198 123.763 14.2235L106.127 18.8876L104.921 16.541C102.766 12.4464 102.516 12.2276 99.4031 13.0677C96.2898 13.9079 93.6636 16.907 94.9613 18.1791C95.4371 18.5279 96.6895 18.5716 97.9348 18.2355C99.2691 17.8754 100.214 18.1931 100.43 18.9937C100.742 20.15 98.8329 20.8561 88.2476 23.7127C80.153 25.8972 75.8762 26.6697 76.088 26.0399C76.2108 25.4342 77.0043 24.8383 77.7159 24.6463C78.5165 24.4303 78.7932 23.6876 78.3512 22.7571C77.8613 21.6487 76.7868 21.557 74.1182 22.2772C70.827 23.1654 70.6081 23.4153 71.3862 25.5911L72.1882 27.8558L63.2591 30.8381C58.3498 32.4492 50.3512 34.9896 45.4829 36.3988C37.2823 38.8982 36.6357 38.9773 35.9127 37.3592C35.4707 36.4287 34.423 35.3754 33.6803 35.0987C32.9137 34.7331 31.9789 33.7447 31.561 32.9032C30.5161 30.7994 28.0353 30.8009 21.4599 32.9571ZM29.837 33.941C30.4879 35.2923 29.8243 35.6622 24.7541 37.0305C20.2175 38.2548 18.8112 38.348 18.5471 37.3695C18.1871 36.0353 21.4401 34.2985 26.4695 33.1321C28.2725 32.7409 29.395 33.0106 29.837 33.941ZM102.758 15.5979C104.135 17.5167 104.437 19.3437 103.458 19.6078C103.014 19.7278 102.353 19.0473 102.089 18.0688C101.729 16.7345 100.986 16.4578 99.4738 16.8659C98.2285 17.202 96.8631 17.0933 96.4762 16.7205C95.9764 16.2828 96.9478 15.639 98.7268 15.1589C100.773 14.6067 102.162 14.8044 102.758 15.5979ZM76.7021 23.0113C76.8221 23.4561 76.3195 24.0689 75.6079 24.2609C74.9852 24.4289 74.1098 25.4286 73.8811 26.3492C73.4646 27.9885 73.3757 28.0125 72.8066 26.2575C72.4465 24.9232 72.8771 24.0435 74.2284 23.3926C75.2478 22.9266 76.1542 22.3957 76.3081 22.2587C76.3971 22.2347 76.558 22.4776 76.7021 23.0113ZM34.0758 38.3321C34.5559 40.1111 34.1351 40.3201 26.3243 42.1417C19.2251 43.7713 17.9077 43.8405 17.2808 42.5783C16.6538 41.316 17.4064 40.922 25.0563 38.8576C33.062 36.6971 33.6197 36.642 34.0758 38.3321ZM141.353 11.8622L145.411 11.3397L147.823 22.045C149.141 27.9879 150.064 33.1782 149.805 33.63C149.545 34.0818 118.152 42.9356 80.0153 53.3229L10.7457 72.1122L7.79298 61.171L4.86431 50.3189L8.90102 48.6569C11.2307 47.7419 22.2537 44.3854 33.4377 41.2718C44.7346 38.2231 65.4533 32.25 79.5007 28.0773C107.021 20.0779 134.822 12.766 141.353 11.8622ZM158.068 62.1285C162.238 77.2264 166.497 92.3002 167.385 95.5915L169.017 101.64L140.252 109.976C124.426 114.628 93.4844 123.742 71.4144 130.366C44.654 138.351 30.9553 142.048 30.1646 141.594C29.5999 141.269 29.1339 140.249 29.2087 139.466C29.3414 138.189 31.1374 137.418 39.143 135.258C48.3941 132.761 48.9927 132.504 49.7099 130.211C50.3453 128.322 49.0518 122.468 43.3893 100.425C36.5505 74.0232 36.1495 72.8909 34.2122 72.0776C32.6379 71.5482 29.3396 72.0566 22.0455 74.025C14.2177 76.1375 11.9219 76.4708 11.6579 75.4923C11.2018 73.8022 44.4077 63.8866 87.8304 52.9316C115.68 45.7977 144.89 37.3421 149.874 34.9473C150.206 34.7624 153.874 46.9417 158.068 62.1285ZM21.4653 76.472C21.5133 76.6499 19.9404 78.6012 17.8579 80.7856L14.1544 84.7433L13.3142 81.63L12.4741 78.5167L16.9217 77.3164C19.4123 76.6443 21.4173 76.2941 21.4653 76.472ZM25.7549 79.9904C14.9016 92.4624 15.9789 91.5037 15.3067 89.013C14.4185 85.7218 23.1074 75.838 28.0647 74.4047L31.5988 73.3555L25.7549 79.9904ZM35.1075 75.7487C35.3956 76.8161 32.7186 80.6877 27.2955 87.1137C22.7238 92.4509 18.6716 96.8846 18.2268 97.0046C17.7821 97.1246 17.2512 96.2182 17.093 94.9248C16.8388 93.2757 18.6644 90.4927 24.768 83.4059C29.2099 78.2946 33.2451 74.1518 33.7139 74.1207C34.2956 74.1546 34.8675 74.8592 35.1075 75.7487ZM37.2087 81.7663C37.6888 83.5454 36.3178 85.5377 29.6395 92.9704C19.7844 103.837 19.1688 104.385 18.9414 101.774C18.7832 100.481 21.5011 96.4073 27.0132 89.9573C31.5609 84.5311 35.5891 80.0085 36.0099 79.7995C36.3657 79.7035 36.8966 80.61 37.2087 81.7663ZM38.865 87.904C39.4172 89.9499 37.3007 92.716 23.1577 108.557L21.0102 110.854L20.6938 108.268C20.3845 106.061 21.6016 104.205 29.0903 95.886C33.9529 90.5657 37.9811 86.0431 38.159 85.9951C38.224 85.8821 38.577 86.8366 38.865 87.904ZM40.7036 95.424C41.0298 97.34 39.505 99.4693 32.5838 107.063C27.94 112.133 23.8398 116.389 23.484 116.485C23.0633 116.694 22.5564 115.877 22.2443 114.72C21.8362 113.208 23.6208 110.627 30.3641 103.081C35.0248 97.72 39.2549 93.2384 39.6107 93.1423C40.0554 93.0223 40.5214 94.0417 40.7036 95.424ZM42.7441 102.985C43.1734 105.637 42.4999 106.677 34.6243 114.624C29.9325 119.516 25.7603 123.505 25.4285 123.69C24.9837 123.81 24.4288 122.815 24.0447 121.392C23.4686 119.257 24.4499 117.942 32.1645 109.753C36.8972 104.658 41.1993 100.443 41.5551 100.347C41.9759 100.138 42.4899 101.336 42.7441 102.985ZM44.2169 111.272C44.9611 114.029 44.7663 114.368 36.148 122.038C31.2881 126.308 27.1089 129.917 26.842 129.989C26.5752 130.061 26.1572 129.219 25.8451 128.063C25.502 126.438 27.0508 124.398 34.205 117.314C39.0097 112.486 43.069 108.432 43.2469 108.384C43.3358 108.36 43.7848 109.67 44.2169 111.272ZM46.2574 118.833C46.9056 121.234 46.314 121.871 38.2392 128.726C33.3964 132.705 29.1451 136.047 28.7893 136.144C28.3445 136.264 27.8376 135.446 27.5255 134.29C27.0694 132.6 28.4474 130.987 35.6807 124.55C40.3626 120.328 44.5418 116.719 44.9866 116.599C45.3184 116.414 45.8973 117.498 46.2574 118.833ZM48.1779 125.949C49.2341 129.863 48.0029 130.958 40.5959 132.862L33.8355 134.686L40.0155 129.297C43.4252 126.372 46.4623 123.835 46.907 123.715C47.2388 123.53 47.8178 124.614 48.1779 125.949Z" fill="var(--fill-0, #C7C7C7)"/>
<path id="Vector_2" d="M108.48 27.6056C109.392 30.9858 110.907 35.5393 111.798 37.78L113.525 41.7038L130.693 37.0707L147.949 32.4137L145.597 23.6963C144.325 18.9819 142.655 14.5654 142.019 13.9738C141.019 13.0984 137.721 13.6068 123.772 17.0848L106.799 21.379L108.48 27.6056ZM143.28 22.8902L145.779 31.0907L129.679 35.4357L113.667 39.7567L111.387 31.3063L109.106 22.8558L124.988 18.7607L140.804 14.7786L143.28 22.8902Z" fill="var(--fill-0, #C7C7C7)"/>
<path id="Vector_3" d="M113.045 30.3811L114.942 37.4083L118.021 37.1499C119.605 37.0086 125.969 35.4821 132.059 33.6478L143.106 30.3803L141.548 23.5479L139.991 16.7155L131.129 18.5344C126.23 19.4749 119.753 20.9364 116.729 21.7526L111.125 23.2649L113.045 30.3811ZM124.202 22.2169C124.49 23.2843 119.974 35.1914 119.173 35.4075C117.75 35.7916 117.914 34.9839 120.137 28.3717C122.027 22.995 123.722 20.4379 124.202 22.2169ZM133.043 25.2707C132.025 28.2175 131.339 30.9793 131.435 31.3351C131.555 31.7799 130.203 32.4308 128.513 32.8869L125.311 33.7511L127.005 28.7132C129.635 21.1324 130.155 20.2287 132.588 20.0494L134.843 19.918L133.043 25.2707Z" fill="var(--fill-0, #C7C7C7)"/>
<path id="Vector_4" d="M83.1158 32.6377C77.6558 34.6837 77.5019 34.8207 77.9072 37.3834C78.1374 38.9436 78.9945 41.766 79.9265 43.8049L81.4924 47.4858L87.5412 45.8534C90.9213 44.9412 95.3859 43.45 97.6266 42.559L101.639 40.8081L99.6681 34.5645L97.6968 28.321L93.2252 29.4323C90.7995 29.9915 86.246 31.5066 83.1158 32.6377ZM98.163 35.3524L99.6033 40.6896L90.7081 43.0901L81.8129 45.4907L80.4926 40.5983C79.7724 37.9297 79.4391 35.6339 79.8839 35.5139C80.2397 35.4179 80.8568 37.3508 81.44 39.8655L82.2844 44.4091L85.7536 43.4729C87.6216 42.9688 91.1966 41.7177 93.6802 40.6657L98.2506 38.8597L96.9995 35.2847L95.7484 31.7097L89.7887 33.3181C86.5864 34.1823 84.0237 34.5875 84.1705 34.0708C84.2524 33.667 87.1158 32.6079 90.5849 31.6717L96.7226 30.0153L98.163 35.3524ZM95.4944 36.0726L96.2146 38.7412L89.9879 40.4216L83.7613 42.1019L83.0411 39.4334L82.321 36.7648L88.5476 35.0844L94.7742 33.404L95.4944 36.0726Z" fill="var(--fill-0, #C7C7C7)"/>
<path id="Vector_5" d="M61.0348 43.4634C59.7048 45.2538 59.6949 45.9244 60.8556 47.0427C64.0876 50.1785 69.981 46.2023 66.9268 43.0185C64.8075 40.8229 62.8434 40.9712 61.0348 43.4634ZM64.9939 43.6355C66.5344 44.7467 66.0868 45.9172 63.7741 46.5414C62.1729 46.9735 61.0701 45.3624 62.0034 43.87C62.6529 42.7404 63.5015 42.7023 64.9939 43.6355Z" fill="var(--fill-0, #C7C7C7)"/>
<path id="Vector_6" d="M86.9649 55.742C81.2735 59.7592 76.3093 66.8247 73.7439 74.2925C72.2855 78.7896 72.3406 79.3473 75.0052 89.221C77.4058 98.1162 78.3137 100.066 81.173 103.589C93.5929 118.846 128.491 116.967 136.857 100.586C142.398 89.6428 141.605 74.6832 134.768 62.7863C129.829 54.3854 121.696 49.7092 111.143 49.5034C105.576 49.3835 90.5837 53.2385 86.9649 55.742ZM108.65 51.226C116.095 50.1711 126.725 54.5549 131.396 60.5471C134.489 64.5795 138.108 74.1002 138.713 80.2351C139.677 88.7548 136.853 99.1552 132.404 103.887C129.008 107.571 128.41 107.828 118.957 110.283C108.105 113.212 102.828 113.109 93.2524 110.158C84.823 107.566 79.0973 100.141 75.8735 87.8415C73.7469 79.2541 74.3906 74.2134 78.6912 67.5179C85.224 57.0707 91.6172 53.5322 108.65 51.226Z" fill="var(--fill-0, #C7C7C7)"/>
<path id="Vector_7" d="M88.0592 60.5041C83.5311 64.5889 79.5285 71.6813 78.1294 78.1664C76.6004 84.8774 79.7141 96.0614 84.7648 102.046C90.7982 109.198 98.1461 111.318 111.822 110.013C122.597 108.919 127.639 106.031 131.966 98.3742C136.14 90.854 136.991 83.7533 134.686 75.2139C131.59 63.7391 126.957 58.5955 116.542 55.0122C110.108 52.7406 109.906 52.6996 101.028 54.8093C92.7721 56.751 91.7527 57.2169 88.0592 60.5041ZM111.838 55.6138C123.162 57.6157 129.827 63.9283 133.061 75.557C135.318 83.9185 134.596 90.7933 130.587 97.5058C127.031 103.428 122.595 106.438 115.489 107.688C102.077 109.971 94.5893 108.747 88.0914 103.057C79.5051 95.6406 77.0634 80.9352 82.6347 70.4613C88.3768 59.5595 100.199 53.5061 111.838 55.6138Z" fill="var(--fill-0, #C7C7C7)"/>
<path id="Vector_8" d="M92.191 62.7299C92.311 63.1746 93.2316 63.4033 94.2101 63.1393C95.1885 62.8752 95.8691 62.2144 95.7491 61.7696C95.605 61.2359 94.7084 61.0962 93.73 61.3602C92.7515 61.6243 92.0469 62.1961 92.191 62.7299Z" fill="var(--fill-0, #C7C7C7)"/>
<path id="Vector_9" d="M85.8313 69.2183C85.2058 70.4368 85.066 71.3334 85.5998 71.1894C86.0445 71.0694 86.9848 69.9567 87.6103 68.7382C88.2358 67.5197 88.3755 66.6231 87.8418 66.7671C87.3971 66.8871 86.4567 67.9998 85.8313 69.2183Z" fill="var(--fill-0, #C7C7C7)"/>
<path id="Vector_10" d="M97.0795 68.4716C94.0185 70.92 91.5237 76.174 91.3177 80.7148C91.0058 85.5705 93.6067 92.0258 96.9207 94.7579C102.412 99.1927 111.486 99.2249 117.349 94.7799C120.895 92.0096 124.552 84.3426 124.232 80.3256C123.815 75.9528 121.125 69.5215 118.715 67.309C114.103 63.3049 102.805 63.8728 97.0795 68.4716ZM99.5887 76.0015C99.9008 77.1579 99.4462 77.9486 98.2898 78.2606C96.5997 78.7167 95.408 77.1297 96.3412 75.6373C97.1615 74.0799 99.1326 74.3114 99.5887 76.0015ZM120.164 81.5188C120.74 83.6537 115.838 91.6567 113.614 92.2569C112.102 92.665 111.602 92.2273 111.026 90.0924C110.546 88.3134 110.75 87.3038 111.64 87.0638C112.352 86.8717 113.333 85.5572 113.886 84.0718C115.058 80.9881 119.54 79.2061 120.164 81.5188Z" fill="var(--fill-0, #C7C7C7)"/>
<path id="Vector_11" d="M83.5787 74.3101C83.2949 74.673 83.3161 75.8124 83.6042 76.8798C84.0843 78.6589 84.0843 78.6589 84.9384 76.5197C85.41 75.4382 85.7446 74.2027 85.6246 73.758C85.4085 72.9574 84.1632 73.2935 83.5787 74.3101Z" fill="var(--fill-0, #C7C7C7)"/>
<path id="Vector_12" d="M83.0017 85.2505C83.2658 86.229 83.9266 86.9095 84.3713 86.7895C84.905 86.6454 85.0448 85.7489 84.7807 84.7704C84.5167 83.7919 83.9448 83.0874 83.4111 83.2314C82.9664 83.3514 82.7376 84.272 83.0017 85.2505Z" fill="var(--fill-0, #C7C7C7)"/>
<path id="Vector_13" d="M130.757 79.0418C130.369 82.2003 130.774 84.763 131.575 84.5469C132.82 84.2109 132.843 81.819 131.839 79.5133C131.188 78.1621 130.849 77.9673 130.757 79.0418Z" fill="var(--fill-0, #C7C7C7)"/>
<path id="Vector_14" d="M127.922 93.6446C126.743 96.3486 126.627 97.3341 127.606 97.07C128.762 96.758 131.411 91.3671 131.05 90.0328C130.69 88.6985 129.466 90.174 127.922 93.6446Z" fill="var(--fill-0, #C7C7C7)"/>
<path id="Vector_15" d="M121.05 101.416C119.925 102.197 120.001 103.894 121.157 103.582C121.602 103.462 122.502 102.551 123.288 101.576C124.269 100.261 124.286 99.9702 123.308 100.234C122.596 100.426 121.512 101.005 121.05 101.416Z" fill="var(--fill-0, #C7C7C7)"/>
<path id="Vector_16" d="M53.9168 66.9512C53.657 67.403 53.8943 69.343 54.3984 71.211C55.0226 73.5238 54.9379 74.9781 54.1444 75.574C53.4158 76.0569 52.5546 77.8162 52.2271 79.4315C51.6708 81.9673 51.9109 82.8569 53.3765 84.7516C56.6538 89.1159 61.1395 88.7642 64.425 83.9649C67.037 80.2062 66.3987 77.1338 62.6711 74.9906C60.7508 73.8865 59.4462 72.2346 58.5721 69.703C57.321 66.1279 55.1748 64.894 53.9168 66.9512ZM58.0004 75.0105C58.2546 76.6596 57.7886 75.6402 56.9964 72.7048C56.2043 69.7694 56.0221 68.3871 56.5601 69.6734C57.0981 70.9596 57.7462 73.3613 58.0004 75.0105ZM56.2172 80.0724C56.5407 83.0389 56.9346 83.7914 58.211 83.9241C60.7638 84.1895 62.4863 80.6709 61.1844 77.9684C60.2285 75.8407 60.2934 75.7277 62.1007 76.7668C64.5618 78.1067 64.7695 82.0588 62.5739 84.1781C58.6206 87.9171 52.4079 84.345 54.0781 79.2182C55.2838 75.5528 55.7117 75.7236 56.2172 80.0724ZM60.0803 79.8887C60.9911 80.7881 59.589 82.3116 58.2406 81.9121C57.0941 81.5535 57.2847 79.7843 58.53 79.4482C58.9748 79.3282 59.6045 79.54 60.0803 79.8887Z" fill="var(--fill-0, #C7C7C7)"/>
<path id="Vector_17" d="M80.9528 113.382C79.5578 115.286 79.548 115.956 80.7086 117.074C83.6667 119.902 87.8432 117.344 86.7629 113.341C86.4509 112.185 85.5161 111.196 84.6435 111.146C82.5835 110.938 82.7374 110.801 80.9528 113.382ZM85.5727 114.235C85.7647 114.946 85.0433 115.809 84.0238 116.275C81.8961 117.231 80.5603 115.11 82.3901 113.758C83.7992 112.614 85.1886 112.812 85.5727 114.235Z" fill="var(--fill-0, #C7C7C7)"/>
</g>
</svg>
