<svg preserveAspectRatio="none" width="100%" height="100%" overflow="visible" style="display: block;" viewBox="0 0 226.985 226.985" fill="none" xmlns="http://www.w3.org/2000/svg">
<g id="Note">
<g id="Paper" filter="url(#filter0_d_0_510)">
<path d="M222.985 1.37333C203.877 1.1536 71.5236 0.366228 7.73564 7.9835e-06C5.95809 13.4037 5.88403 150.242 6.06919 216.985C30.0661 216.985 159.938 216.802 221.874 216.711C221.208 196.276 222.337 64.6378 222.985 1.37333Z" fill="var(--fill-0, #FFBDF2)"/>
</g>
<path id="Glue" opacity="0.02" d="M222.985 1.4274C203.828 1.3835 71.6925 0.073169 7.74094 7.9835e-06C7.11422 11.5361 6.83456 25.6067 6.55637 43.3479C30.6148 43.3479 160.334 43.4121 222.429 43.3938C222.707 30.8872 222.708 14.0875 222.985 1.4274Z" fill="var(--fill-0, #222222)"/>
</g>
<defs>
<filter id="filter0_d_0_510" x="-3.25717e-08" y="7.9835e-06" width="226.985" height="226.985" filterUnits="userSpaceOnUse" color-interpolation-filters="sRGB">
<feFlood flood-opacity="0" result="BackgroundImageFix"/>
<feColorMatrix in="SourceAlpha" type="matrix" values="0 0 0 0 0 0 0 0 0 0 0 0 0 0 0 0 0 0 127 0" result="hardAlpha"/>
<feOffset dx="-1" dy="5"/>
<feGaussianBlur stdDeviation="2.5"/>
<feComposite in2="hardAlpha" operator="out"/>
<feColorMatrix type="matrix" values="0 0 0 0 0 0 0 0 0 0 0 0 0 0 0 0 0 0 0.3 0"/>
<feBlend mode="normal" in2="BackgroundImageFix" result="effect1_dropShadow_0_510"/>
<feBlend mode="normal" in="SourceGraphic" in2="effect1_dropShadow_0_510" result="shape"/>
</filter>
</defs>
</svg>
