<svg preserveAspectRatio="none" width="100%" height="100%" overflow="visible" style="display: block;" viewBox="0 0 153.55 191.492" fill="none" xmlns="http://www.w3.org/2000/svg">
<path id="Vector 1286" d="M7.63563 190.813C8.08917 191.506 9.01882 191.7 9.71207 191.247L21.0093 183.856C21.7026 183.403 21.8969 182.473 21.4434 181.78C20.9898 181.086 20.0602 180.892 19.3669 181.346L9.32494 187.915L2.75542 177.873C2.30189 177.18 1.37224 176.985 0.678982 177.439C-0.0142727 177.893 -0.208607 178.822 0.244924 179.515L7.63563 190.813ZM8.89088 189.991L10.3591 190.298C10.6939 188.697 11.0351 187.108 11.3824 185.532L9.91752 185.209L8.45266 184.886C8.103 186.473 7.75961 188.072 7.42262 189.685L8.89088 189.991ZM12.0927 175.827L13.55 176.182C14.3216 173.015 15.1188 169.901 15.9402 166.84L14.4915 166.451L13.0427 166.062C12.2152 169.146 11.4123 172.283 10.6353 175.472L12.0927 175.827ZM17.1163 157.123L18.5551 157.547C19.4761 154.422 20.4229 151.355 21.3941 148.345L19.9666 147.885L18.5391 147.424C17.56 150.458 16.6056 153.549 15.6775 156.699L17.1163 157.123ZM23.0531 138.739L24.4678 139.237C25.5491 136.171 26.6561 133.168 27.7872 130.227L26.3872 129.688L24.9871 129.15C23.8458 132.117 22.7291 135.147 21.6385 138.24L23.0531 138.739ZM29.9865 120.725L31.3699 121.305C32.6322 118.293 33.9201 115.35 35.2313 112.477L33.8667 111.854L32.502 111.231C31.1777 114.134 29.8773 117.104 28.603 120.145L29.9865 120.725ZM38.026 103.119L39.3695 103.786C40.8212 100.863 42.2972 98.0177 43.7949 95.2472L42.4754 94.5339L41.1559 93.8205C39.6416 96.6217 38.1496 99.4982 36.6826 102.452L38.026 103.119ZM47.2249 86.1153L48.5176 86.8762C50.1729 84.0641 51.8502 81.3371 53.5463 78.6931L52.2838 77.8832L51.0212 77.0732C49.3042 79.7498 47.6069 82.5094 45.9322 85.3543L47.2249 86.1153ZM57.6597 69.8607L58.8886 70.7209C60.7603 68.0471 62.6501 65.4678 64.5541 62.9803L63.3629 62.0686L62.1718 61.1569C60.2418 63.6784 58.3269 66.292 56.4309 69.0005L57.6597 69.8607ZM69.4207 54.5091L70.5696 55.4735C72.6754 52.9645 74.793 50.5617 76.9171 48.2616L75.8151 47.244L74.7131 46.2263C72.5567 48.5613 70.4078 50.9997 68.2717 53.5448L69.4207 54.5091ZM82.543 40.3112L83.5928 41.3827C85.9293 39.0935 88.2671 36.9234 90.5993 34.8681L89.6075 33.7427L88.6158 32.6174C86.2438 34.7077 83.8673 36.9138 81.4933 39.2398L82.543 40.3112ZM97.0544 27.5399L97.9812 28.7193C100.559 26.6932 103.122 24.8037 105.658 23.0449L104.804 21.8122L103.949 20.5795C101.363 22.3726 98.7526 24.2976 96.1276 26.3605L97.0544 27.5399ZM112.943 16.5454L113.716 17.8308C116.554 16.1243 119.344 14.5812 122.073 13.1923L121.392 11.8556L120.712 10.5188C117.92 11.9401 115.068 13.5174 112.17 15.26L112.943 16.5454ZM130.162 7.81012L130.735 9.19644C133.846 7.91129 136.842 6.83628 139.699 5.95462L139.257 4.52131L138.815 3.088C135.866 3.99789 132.783 5.10455 129.59 6.42379L130.162 7.81012ZM148.639 2.1892L148.911 3.66436C150.532 3.36567 152.081 3.1402 153.55 2.98298L153.391 1.49149L153.231 0C151.682 0.165734 150.058 0.40245 148.367 0.714037L148.639 2.1892Z" fill="var(--stroke-0, #999999)"/>
</svg>
