<svg preserveAspectRatio="none" width="100%" height="100%" overflow="visible" style="display: block;" viewBox="0 0 9.25515 12.3526" fill="none" xmlns="http://www.w3.org/2000/svg">
<path id="Vector 1301" d="M1.37687 2.9609C1.37615 2.9609 1.37543 2.9609 1.37507 3.43571C1.37471 3.91053 1.37473 4.86016 1.40513 5.56451C1.43553 6.26885 1.4963 6.69913 1.59858 7.23909C1.70087 7.77905 1.84282 8.41565 1.9212 8.76023C1.99958 9.10482 2.0101 9.1381 2.05126 9.37473C2.09243 9.61137 2.16391 10.0504 2.20679 10.2692C2.24966 10.488 2.26175 10.4734 2.75992 9.83916C3.25809 9.20488 4.24199 7.95136 4.87374 7.18794C5.50549 6.42451 5.75528 6.18917 5.89138 6.05495C6.04808 5.90043 6.09575 5.823 6.15039 5.76725C6.16415 5.75321 6.16058 5.78162 6.08145 5.92369C6.00231 6.06577 5.85054 6.32412 5.38307 7.02868C4.9156 7.73324 4.13703 8.87619 3.66916 9.54873C3.20129 10.2213 3.06772 10.3888 2.97418 10.5149C2.82493 10.716 2.7385 10.8843 2.69156 10.9648C2.64502 11.0447 2.78762 10.7279 3.06967 10.4201C3.30639 10.1618 3.77341 9.73448 4.13156 9.34377C4.4897 8.95306 4.73511 8.62172 5.32758 7.62006C5.92006 6.61841 6.85217 4.95648 7.3441 4.07259C7.83603 3.18871 7.85953 3.13324 7.87256 3.09614C7.8856 3.05905 7.88745 3.04201 7.83261 3.03541C7.77777 3.02881 7.66617 3.03317 7.44854 3.06342C7.23092 3.09367 6.91064 3.14966 6.61115 3.18056C6.31167 3.21145 6.04267 3.21556 5.86755 3.21425C5.61919 3.21241 5.47018 3.18394 5.32698 3.14933C5.06662 3.0864 4.89628 2.91938 4.77839 2.77541C4.72822 2.71414 4.71429 2.64593 4.7055 2.57956C4.694 2.49281 4.71447 2.41936 4.82931 2.24337C4.92995 2.08915 5.12123 1.80619 5.2277 1.64976C5.34912 1.47136 5.38605 1.44394 5.42522 1.43247C5.51953 1.40487 5.67195 1.52473 5.78908 1.62943C5.86771 1.69972 5.86665 1.81701 5.84379 2.23602C5.82644 2.55384 5.66375 2.63774 5.45726 2.82666C5.31471 2.95709 5.10031 3.16293 4.98155 3.26254C4.8628 3.36216 4.84741 3.35066 4.76602 3.06612C4.68464 2.78157 4.53771 2.22434 4.44987 1.91168C4.34688 1.54513 4.28487 1.46512 4.22956 1.41448C4.18363 1.37243 4.12829 1.37255 4.0841 1.37717C4.0314 1.38267 3.97011 1.41767 3.86823 1.48502C3.69201 1.60149 3.53135 1.78212 3.35401 2.04766C3.23598 2.22441 3.1031 2.5128 3.01653 2.70228C2.92997 2.89176 2.9045 2.98034 2.80648 3.64609C2.70847 4.31185 2.53868 5.5521 2.44619 6.54636C2.3537 7.54062 2.34366 8.2513 2.3402 8.63081C2.33674 9.01032 2.34017 9.03712 2.3437 9.10163" stroke="var(--stroke-0, #333333)" stroke-width="2.75" stroke-linecap="round"/>
</svg>
