<svg preserveAspectRatio="none" width="100%" height="100%" overflow="visible" style="display: block;" viewBox="0 0 104.868 112.236" fill="none" xmlns="http://www.w3.org/2000/svg">
<path id="Vector" d="M45.5994 110.026C44.7864 108.535 43.5669 101.896 42.7539 95.392C40.9924 79.2675 37.4694 72.7635 27.0359 65.7175C22.5644 62.601 15.2474 59.078 10.9114 57.723C-3.85812 53.116 -3.72262 51.219 11.8599 48.238C34.2174 43.902 43.2959 34.146 47.0899 10.298C48.4449 2.0325 49.2579 0 51.1549 0C53.5939 0 53.8649 0.4065 56.3039 14.2275C59.9624 34.0105 64.8404 42.547 77.4419 50.8125C81.7779 53.658 89.6369 57.723 94.7859 59.7555C100.07 61.788 104.542 64.3625 104.813 65.4465C105.355 67.8855 102.103 68.563 85.4364 69.7825C60.9109 71.6795 54.4069 78.048 52.3744 102.302C51.6969 109.619 51.0194 111.787 49.2579 112.194C48.0384 112.465 46.4124 111.381 45.5994 110.026ZM49.5289 83.3325C49.5289 80.216 57.6589 71.9505 63.3499 68.9695C66.3309 67.479 71.8864 65.9885 75.6804 65.582C89.6369 64.227 89.7724 64.0915 81.1004 59.4845C65.2469 51.219 58.0654 43.089 53.5939 28.8615L51.2904 21.409L48.9869 27.5065C44.5154 39.295 32.5914 49.4575 19.9899 52.1675L15.6539 53.116L23.6484 57.0455C36.6564 63.5495 46.8189 75.338 46.8189 84.01C46.8189 85.5005 47.4964 86.449 48.1739 86.0425C48.9869 85.636 49.5289 84.281 49.5289 83.3325Z" fill="var(--fill-0, #676767)"/>
</svg>
