<svg preserveAspectRatio="none" width="100%" height="100%" overflow="visible" style="display: block;" viewBox="0 0 7.73425 7.84016" fill="none" xmlns="http://www.w3.org/2000/svg">
<path id="Vector 1300" d="M6.35923 2.88532C6.34169 2.90073 6.32414 2.91613 6.15089 3.08915C5.97763 3.26217 5.64919 3.59233 5.30599 4.0755C4.96279 4.55866 4.61478 5.18483 4.36063 5.60448C4.10648 6.02413 3.95674 6.21827 3.87075 6.32549C3.78475 6.43271 3.76703 6.44711 3.74747 6.46055C3.72791 6.47399 3.70705 6.48604 3.5726 6.07075C3.43814 5.65546 3.19073 4.81247 3.00297 3.94102C2.81521 3.06956 2.6946 2.19519 2.64129 1.76062C2.58797 1.32604 2.6056 1.35774 2.62142 1.39519C2.63723 1.43264 2.6507 1.47486 2.72149 2.07064C2.79229 2.66642 2.92001 3.81448 2.97695 4.39686C3.03389 4.97925 3.01617 4.96118 2.77113 4.47446C2.52608 3.98774 2.05426 3.03292 1.80233 2.52955C1.53763 2.00068 1.50104 1.9672 1.47342 1.944C1.44641 1.92131 1.41183 1.91001 1.38496 1.91707C1.37016 1.92097 1.37356 1.95752 1.38556 2.0783C1.39755 2.19908 1.4233 2.41117 1.45379 2.78841C1.48427 3.16566 1.5187 3.70164 1.55826 4.07177C1.59782 4.4419 1.64147 4.62994 1.68751 4.93121C1.73355 5.23248 1.78066 5.64129 1.80833 5.86438C1.83601 6.08746 1.84282 6.11245 1.85638 6.15486" stroke="var(--stroke-0, #333333)" stroke-width="2.75" stroke-linecap="round"/>
</svg>
