<svg preserveAspectRatio="none" width="100%" height="100%" overflow="visible" style="display: block;" viewBox="0 0 88.9201 56.3909" fill="none" xmlns="http://www.w3.org/2000/svg">
<path id="Vector" d="M39.5597 51.5964C39.0177 48.3444 36.7142 44.6859 33.0557 41.1629C27.6357 35.6074 23.5707 33.9814 5.41367 29.5099C-4.07133 27.0709 -0.954833 24.9029 13.6792 23.8189C20.8607 23.2769 28.4487 21.9219 30.6167 20.8379C35.9012 18.1279 42.8117 9.72686 44.1667 4.44236C45.9282 -1.92614 49.0447 -1.38414 50.9417 5.66186C52.5677 11.8949 58.8007 20.2959 63.9497 23.0059C65.4402 23.9544 71.6732 26.2579 77.4997 28.1549C94.0307 33.7104 92.9467 35.4719 72.0797 37.5044C57.3102 38.8594 49.4512 42.9244 45.9282 51.3254C43.2182 57.9649 40.7792 58.1004 39.5597 51.5964ZM44.8442 43.7374C46.1992 40.6209 59.3427 33.8459 66.2532 32.8974L72.8927 31.9489L64.7627 27.8839C57.0392 24.0899 48.5027 15.8244 48.5027 12.3014C48.5027 9.32036 46.6057 10.4044 43.4892 15.2824C39.6952 20.9734 35.6302 23.8189 26.4162 26.9354C22.4867 28.2904 20.5897 29.3744 22.2157 29.3744C26.5517 29.5099 37.2562 37.0979 39.6952 41.5694C41.9987 46.1764 43.7602 46.8539 44.8442 43.7374Z" fill="var(--fill-0, #676767)"/>
</svg>
