<svg preserveAspectRatio="none" width="100%" height="100%" overflow="visible" style="display: block;" viewBox="0 0 27 27" fill="none" xmlns="http://www.w3.org/2000/svg">
<path id="Vector" d="M5.43 11.685C7.59 15.93 11.07 19.395 15.315 21.57L18.615 18.27C19.02 17.865 19.62 17.73 20.145 17.91C21.825 18.465 23.64 18.765 25.5 18.765C26.325 18.765 27 19.44 27 20.265V25.5C27 26.325 26.325 27 25.5 27C11.415 27 0 15.585 0 1.5C0 0.675 0.675 0 1.5 0H6.75C7.575 0 8.25 0.675 8.25 1.5C8.25 3.375 8.55 5.175 9.105 6.855C9.27 7.38 9.15 7.965 8.73 8.385L5.43 11.685Z" fill="var(--fill-0, #FF6C11)"/>
</svg>
