<svg preserveAspectRatio="none" width="100%" height="100%" overflow="visible" style="display: block;" viewBox="0 0 2.32304 6.02575" fill="none" xmlns="http://www.w3.org/2000/svg">
<path id="Vector 1298" d="M0.545397 0.620833C0.545397 0.631548 0.545397 0.642264 0.545397 1.4925C0.545397 2.34274 0.545397 4.03218 0.586289 4.8916C0.627181 5.75102 0.708965 5.72922 0.81635 5.5704C1.10344 5.14581 1.43937 3.95508 1.84531 2.40431C2.15306 1.22863 2.10676 0.567468 2.06019 0.44732C2.04335 0.403898 1.92047 0.571517 1.61066 1.45695C1.30084 2.34238 0.777164 3.98538 0.501669 4.86924C0.226174 5.75309 0.214726 5.82801 0.236303 5.78848C0.337017 5.60398 0.483651 4.46425 0.656963 2.83786C0.804185 1.4563 0.922221 0.93679 1.35094 0.318802C1.43129 0.202981 1.53161 0.215491 1.57692 0.266479C1.62224 0.317467 1.63616 0.43039 1.64297 0.52895C1.64977 0.62751 1.64904 0.708287 1.52118 0.947203" stroke="var(--stroke-0, #333333)" stroke-width="0.458333" stroke-linecap="round"/>
</svg>
